<svg width="420" height="162" viewBox="0 0 420 162" fill="none" xmlns="http://www.w3.org/2000/svg">
<path d="M3.16309 159C2.82975 159 2.66309 158.5 2.66309 157.5C2.66309 156.5 2.82975 156 3.16309 156C10.4964 156 16.0798 155.583 19.9131 154.75C23.9131 153.917 26.7464 152.25 28.4131 149.75C30.0798 147.25 30.9131 143.583 30.9131 138.75V40.5C30.9131 30.5 28.4964 25.5 23.6631 25.5C21.4964 25.5 18.6631 26.4167 15.1631 28.25C11.8298 29.9167 7.66309 32.5833 2.66309 36.25C1.99642 36.5833 1.41309 36.3333 0.913087 35.5C0.413086 34.6667 0.413086 34.0833 0.913087 33.75L45.6631 0.999993C46.4964 0.499989 47.0798 0.249987 47.4131 0.249987C48.4131 0.249987 48.9131 0.833323 48.9131 1.99999V138.75C48.9131 143.583 49.5798 147.25 50.9131 149.75C52.2464 152.25 54.9131 153.917 58.9131 154.75C63.0798 155.583 68.9131 156 76.4131 156C76.7464 156 76.9131 156.5 76.9131 157.5C76.9131 158.5 76.7464 159 76.4131 159C71.5798 159 65.9964 158.917 59.6631 158.75C53.3298 158.583 46.7464 158.5 39.9131 158.5C33.2464 158.5 26.6631 158.583 20.1631 158.75C13.8298 158.917 8.16309 159 3.16309 159ZM100.819 159C100.486 159 100.319 158.5 100.319 157.5C100.319 156.5 100.486 156 100.819 156C108.153 156 113.736 155.583 117.569 154.75C121.569 153.917 124.403 152.25 126.069 149.75C127.736 147.25 128.569 143.583 128.569 138.75V40.5C128.569 30.5 126.153 25.5 121.319 25.5C119.153 25.5 116.319 26.4167 112.819 28.25C109.486 29.9167 105.319 32.5833 100.319 36.25C99.6527 36.5833 99.0693 36.3333 98.5693 35.5C98.0693 34.6667 98.0693 34.0833 98.5693 33.75L143.319 0.999993C144.153 0.499989 144.736 0.249987 145.069 0.249987C146.069 0.249987 146.569 0.833323 146.569 1.99999V138.75C146.569 143.583 147.236 147.25 148.569 149.75C149.903 152.25 152.569 153.917 156.569 154.75C160.736 155.583 166.569 156 174.069 156C174.403 156 174.569 156.5 174.569 157.5C174.569 158.5 174.403 159 174.069 159C169.236 159 163.653 158.917 157.319 158.75C150.986 158.583 144.403 158.5 137.569 158.5C130.903 158.5 124.319 158.583 117.819 158.75C111.486 158.917 105.819 159 100.819 159ZM208.226 161.75C204.559 161.75 201.559 160.667 199.226 158.5C197.059 156.333 195.976 153.333 195.976 149.5C195.976 146 197.059 143.25 199.226 141.25C201.559 139.083 204.559 138 208.226 138C212.226 138 215.226 139.083 217.226 141.25C219.226 143.25 220.226 146 220.226 149.5C220.226 153.333 219.226 156.333 217.226 158.5C215.226 160.667 212.226 161.75 208.226 161.75ZM248.524 159C248.191 159 248.024 158.5 248.024 157.5C248.024 156.5 248.191 156 248.524 156C255.858 156 261.441 155.583 265.274 154.75C269.274 153.917 272.108 152.25 273.774 149.75C275.441 147.25 276.274 143.583 276.274 138.75V40.5C276.274 30.5 273.858 25.5 269.024 25.5C266.858 25.5 264.024 26.4167 260.524 28.25C257.191 29.9167 253.024 32.5833 248.024 36.25C247.358 36.5833 246.774 36.3333 246.274 35.5C245.774 34.6667 245.774 34.0833 246.274 33.75L291.024 0.999993C291.858 0.499989 292.441 0.249987 292.774 0.249987C293.774 0.249987 294.274 0.833323 294.274 1.99999V138.75C294.274 143.583 294.941 147.25 296.274 149.75C297.608 152.25 300.274 153.917 304.274 154.75C308.441 155.583 314.274 156 321.774 156C322.108 156 322.274 156.5 322.274 157.5C322.274 158.5 322.108 159 321.774 159C316.941 159 311.358 158.917 305.024 158.75C298.691 158.583 292.108 158.5 285.274 158.5C278.608 158.5 272.024 158.583 265.524 158.75C259.191 158.917 253.524 159 248.524 159ZM346.181 159C345.847 159 345.681 158.5 345.681 157.5C345.681 156.5 345.847 156 346.181 156C353.514 156 359.097 155.583 362.931 154.75C366.931 153.917 369.764 152.25 371.431 149.75C373.097 147.25 373.931 143.583 373.931 138.75V40.5C373.931 30.5 371.514 25.5 366.681 25.5C364.514 25.5 361.681 26.4167 358.181 28.25C354.847 29.9167 350.681 32.5833 345.681 36.25C345.014 36.5833 344.431 36.3333 343.931 35.5C343.431 34.6667 343.431 34.0833 343.931 33.75L388.681 0.999993C389.514 0.499989 390.097 0.249987 390.431 0.249987C391.431 0.249987 391.931 0.833323 391.931 1.99999V138.75C391.931 143.583 392.597 147.25 393.931 149.75C395.264 152.25 397.931 153.917 401.931 154.75C406.097 155.583 411.931 156 419.431 156C419.764 156 419.931 156.5 419.931 157.5C419.931 158.5 419.764 159 419.431 159C414.597 159 409.014 158.917 402.681 158.75C396.347 158.583 389.764 158.5 382.931 158.5C376.264 158.5 369.681 158.583 363.181 158.75C356.847 158.917 351.181 159 346.181 159Z" fill="#FFF9EE"/>
</svg>
