<svg width="448" height="164" viewBox="0 0 448 164" fill="none" xmlns="http://www.w3.org/2000/svg">
<path d="M3.96777 160C3.30111 160 2.55111 159.417 1.71777 158.25C0.88444 156.917 0.801107 156 1.46777 155.5C10.1344 144.5 18.3844 134.083 26.2178 124.25C34.2178 114.417 41.2178 105 47.2178 96C53.3844 87 58.2178 78.25 61.7178 69.75C65.2178 61.25 66.9678 52.8333 66.9678 44.5C66.9678 34.1667 64.3844 26.4167 59.2178 21.25C54.2178 15.9167 47.3844 13.25 38.7178 13.25C30.3844 13.25 23.3844 15.5 17.7178 20C12.2178 24.5 8.30111 30.8333 5.96777 39C5.80111 39.3333 5.21777 39.4167 4.21777 39.25C3.38444 39.0833 3.05111 38.75 3.21777 38.25C5.55111 26.4167 10.6344 17.25 18.4678 10.75C26.4678 4.24999 36.3011 0.999991 47.9678 0.999991C60.4678 0.999991 70.0511 4.58332 76.7178 11.75C83.5511 18.75 86.9678 27.6667 86.9678 38.5C86.9678 46.6667 85.2178 54.75 81.7178 62.75C78.2178 70.75 73.7178 78.5 68.2178 86C62.8844 93.5 57.1344 100.667 50.9678 107.5C44.8011 114.167 38.9678 120.417 33.4678 126.25C28.1344 132.083 23.8011 137.25 20.4678 141.75C19.6344 142.917 19.9678 143.5 21.4678 143.5C35.4678 143.5 46.8011 143.333 55.4678 143C64.3011 142.667 71.1344 142 75.9678 141C80.9678 139.833 84.3844 138.083 86.2178 135.75C88.0511 133.417 88.9678 130.25 88.9678 126.25C88.9678 125.75 89.4678 125.5 90.4678 125.5C91.4678 125.5 91.9678 125.75 91.9678 126.25L91.7178 157.25C91.7178 157.917 91.5511 158.583 91.2178 159.25C90.8844 159.75 90.3011 160 89.4678 160C80.9678 160 71.7178 160 61.7178 160C51.8844 160 41.9678 160 31.9678 160C21.9678 160 12.6344 160 3.96777 160ZM168.29 163.25C157.79 163.25 148.623 159.917 140.79 153.25C133.123 146.417 127.123 136.917 122.79 124.75C118.623 112.583 116.54 98.25 116.54 81.75C116.54 65.4167 118.623 51.1667 122.79 39C127.123 26.8333 133.207 17.4167 141.04 10.75C148.873 4.08333 158.123 0.749994 168.79 0.749994C179.123 0.749994 188.04 4.16666 195.54 11C203.207 17.6667 209.123 27.1667 213.29 39.5C217.457 51.6667 219.54 66 219.54 82.5C219.54 98.8333 217.457 113.083 213.29 125.25C209.123 137.25 203.207 146.583 195.54 153.25C187.873 159.917 178.79 163.25 168.29 163.25ZM171.29 159.25C177.623 159.25 182.707 156.417 186.54 150.75C190.54 145.083 193.457 136.75 195.29 125.75C197.29 114.75 198.29 101.333 198.29 85.5C198.29 66.8333 196.873 51.5 194.04 39.5C191.373 27.5 187.623 18.75 182.79 13.25C178.123 7.58332 172.54 4.74999 166.04 4.74999C159.707 4.74999 154.457 7.66666 150.29 13.5C146.123 19.3333 142.957 27.9167 140.79 39.25C138.79 50.4167 137.79 64 137.79 80C137.79 96.8333 139.04 111.167 141.54 123C144.207 134.833 148.04 143.833 153.04 150C158.04 156.167 164.123 159.25 171.29 159.25ZM240.784 160C240.118 160 239.368 159.417 238.534 158.25C237.701 156.917 237.618 156 238.284 155.5C246.951 144.5 255.201 134.083 263.034 124.25C271.034 114.417 278.034 105 284.034 96C290.201 87 295.034 78.25 298.534 69.75C302.034 61.25 303.784 52.8333 303.784 44.5C303.784 34.1667 301.201 26.4167 296.034 21.25C291.034 15.9167 284.201 13.25 275.534 13.25C267.201 13.25 260.201 15.5 254.534 20C249.034 24.5 245.118 30.8333 242.784 39C242.618 39.3333 242.034 39.4167 241.034 39.25C240.201 39.0833 239.868 38.75 240.034 38.25C242.368 26.4167 247.451 17.25 255.284 10.75C263.284 4.24999 273.118 0.999991 284.784 0.999991C297.284 0.999991 306.868 4.58332 313.534 11.75C320.368 18.75 323.784 27.6667 323.784 38.5C323.784 46.6667 322.034 54.75 318.534 62.75C315.034 70.75 310.534 78.5 305.034 86C299.701 93.5 293.951 100.667 287.784 107.5C281.618 114.167 275.784 120.417 270.284 126.25C264.951 132.083 260.618 137.25 257.284 141.75C256.451 142.917 256.784 143.5 258.284 143.5C272.284 143.5 283.618 143.333 292.284 143C301.118 142.667 307.951 142 312.784 141C317.784 139.833 321.201 138.083 323.034 135.75C324.868 133.417 325.784 130.25 325.784 126.25C325.784 125.75 326.284 125.5 327.284 125.5C328.284 125.5 328.784 125.75 328.784 126.25L328.534 157.25C328.534 157.917 328.368 158.583 328.034 159.25C327.701 159.75 327.118 160 326.284 160C317.784 160 308.534 160 298.534 160C288.701 160 278.784 160 268.784 160C258.784 160 249.451 160 240.784 160ZM427.856 139.75C427.856 144.583 428.273 148.25 429.106 150.75C429.94 153.25 431.606 154.917 434.106 155.75C436.606 156.583 440.273 157 445.106 157C445.44 157 445.606 157.5 445.606 158.5C445.606 159.5 445.44 160 445.106 160C441.606 160 437.606 159.917 433.106 159.75C428.606 159.583 423.69 159.5 418.356 159.5C412.023 159.5 406.106 159.583 400.606 159.75C395.273 159.917 390.356 160 385.856 160C385.356 160 385.106 159.5 385.106 158.5C385.106 157.5 385.356 157 385.856 157C392.856 157 398.023 156.667 401.356 156C404.69 155.333 406.856 153.75 407.856 151.25C408.856 148.75 409.356 144.917 409.356 139.75V28.25L417.106 22.25L359.356 105C358.69 106.167 359.106 106.75 360.606 106.75C373.273 106.75 384.273 106.75 393.606 106.75C403.106 106.583 412.023 106.417 420.356 106.25C428.69 105.917 437.523 105.583 446.856 105.25C447.356 105.25 447.606 106.167 447.606 108C447.773 109.667 447.773 111.417 447.606 113.25C447.606 114.917 447.356 115.75 446.856 115.75C438.19 115.25 429.19 114.917 419.856 114.75C410.523 114.417 400.106 114.25 388.606 114.25C377.106 114.083 363.523 114 347.856 114C347.19 114 346.606 113.75 346.106 113.25C345.606 112.583 345.606 111.917 346.106 111.25L424.106 2.49999C424.44 1.99999 425.106 1.83333 426.106 1.99999C427.273 2.16666 427.856 2.66666 427.856 3.49999V139.75Z" fill="#FFF9EE"/>
</svg>
