<svg width="716" height="171" viewBox="0 0 716 171" fill="none" xmlns="http://www.w3.org/2000/svg">
<path d="M170.37 38.28C170.49 38.28 170.55 38.4 170.55 38.64C170.55 38.88 170.49 39 170.37 39C169.33 39 168.15 38.98 166.83 38.94C165.55 38.9 164.19 38.88 162.75 38.88C161.11 38.88 159.59 38.9 158.19 38.94C156.79 38.98 155.53 39 154.41 39C154.29 39 154.23 38.88 154.23 38.64C154.23 38.4 154.29 38.28 154.41 38.28C155.73 38.28 156.71 38.18 157.35 37.98C158.03 37.78 158.47 37.38 158.67 36.78C158.91 36.18 159.03 35.3 159.03 34.14V7.08C159.03 5.84 158.97 4.96 158.85 4.44C158.77 3.92 158.53 3.62 158.13 3.54C157.73 3.42 157.03 3.36 156.03 3.36H143.73C142.65 3.36 141.87 3.42 141.39 3.54C140.95 3.66 140.67 3.98 140.55 4.5C140.47 4.98 140.43 5.84 140.43 7.08V34.14C140.43 35.3 140.53 36.18 140.73 36.78C140.97 37.38 141.41 37.78 142.05 37.98C142.73 38.18 143.73 38.28 145.05 38.28C145.17 38.28 145.23 38.4 145.23 38.64C145.23 38.88 145.17 39 145.05 39C143.93 39 142.67 38.98 141.27 38.94C139.87 38.9 138.35 38.88 136.71 38.88C135.27 38.88 133.89 38.9 132.57 38.94C131.25 38.98 130.07 39 129.03 39C128.95 39 128.91 38.88 128.91 38.64C128.91 38.4 128.95 38.28 129.03 38.28C130.39 38.28 131.39 38.18 132.03 37.98C132.71 37.78 133.17 37.38 133.41 36.78C133.65 36.18 133.77 35.3 133.77 34.14V7.08C133.77 5.36 133.49 4.12 132.93 3.36C132.37 2.6 131.11 2.22 129.15 2.22C129.03 2.22 128.97 2.1 128.97 1.86C128.97 1.62 129.03 1.5 129.15 1.5C129.87 1.5 131.27 1.52 133.35 1.56C135.43 1.6 137.93 1.64 140.85 1.68C143.77 1.68 146.81 1.68 149.97 1.68C152.49 1.68 154.91 1.68 157.23 1.68C159.55 1.64 161.65 1.62 163.53 1.62C165.45 1.58 167.01 1.56 168.21 1.56C169.41 1.52 170.13 1.5 170.37 1.5C170.49 1.5 170.55 1.62 170.55 1.86C170.55 2.1 170.49 2.22 170.37 2.22C168.41 2.22 167.13 2.6 166.53 3.36C165.97 4.12 165.69 5.36 165.69 7.08V34.14C165.69 35.3 165.81 36.18 166.05 36.78C166.29 37.38 166.73 37.78 167.37 37.98C168.05 38.18 169.05 38.28 170.37 38.28ZM194.249 39.72C191.369 39.72 188.749 39.22 186.389 38.22C184.069 37.18 182.069 35.76 180.389 33.96C178.749 32.16 177.469 30.1 176.549 27.78C175.669 25.42 175.229 22.92 175.229 20.28C175.229 17.04 175.849 14.2 177.089 11.76C178.369 9.32 180.049 7.3 182.129 5.7C184.209 4.06 186.489 2.84 188.969 2.04C191.449 1.24 193.909 0.839998 196.349 0.839998C199.309 0.839998 201.949 1.38 204.269 2.46C206.629 3.5 208.629 4.92 210.269 6.72C211.909 8.52 213.149 10.56 213.989 12.84C214.869 15.12 215.309 17.46 215.309 19.86C215.309 22.66 214.749 25.26 213.629 27.66C212.509 30.06 210.969 32.16 209.009 33.96C207.089 35.76 204.849 37.18 202.289 38.22C199.769 39.22 197.089 39.72 194.249 39.72ZM196.229 38.22C198.469 38.22 200.469 37.58 202.229 36.3C203.989 35.02 205.369 33.14 206.369 30.66C207.409 28.18 207.929 25.16 207.929 21.6C207.929 17.92 207.369 14.64 206.249 11.76C205.129 8.88 203.529 6.62 201.449 4.98C199.369 3.3 196.869 2.46 193.949 2.46C190.309 2.46 187.509 3.84 185.549 6.6C183.589 9.36 182.609 13.18 182.609 18.06C182.609 20.98 182.949 23.68 183.629 26.16C184.309 28.6 185.249 30.74 186.449 32.58C187.689 34.38 189.129 35.78 190.769 36.78C192.449 37.74 194.269 38.22 196.229 38.22ZM257.549 0.839998C259.229 0.839998 261.029 0.979998 262.949 1.26C264.909 1.54 266.449 1.94 267.569 2.46C267.929 2.58 268.169 2.74 268.289 2.94C268.409 3.1 268.489 3.4 268.529 3.84L269.249 12.18C269.249 12.3 269.149 12.38 268.949 12.42C268.789 12.46 268.669 12.4 268.589 12.24C267.269 9.16 265.469 6.74 263.189 4.98C260.949 3.22 258.289 2.34 255.209 2.34C252.529 2.34 250.249 3.02 248.369 4.38C246.529 5.74 245.129 7.64 244.169 10.08C243.249 12.48 242.789 15.28 242.789 18.48C242.789 21.24 243.129 23.84 243.809 26.28C244.489 28.68 245.449 30.8 246.689 32.64C247.929 34.44 249.409 35.86 251.129 36.9C252.849 37.94 254.749 38.46 256.829 38.46C259.389 38.46 261.669 37.62 263.669 35.94C265.709 34.26 267.529 31.66 269.129 28.14C269.209 27.98 269.349 27.92 269.549 27.96C269.749 28 269.849 28.08 269.849 28.2L268.949 36.36C268.869 36.84 268.769 37.16 268.649 37.32C268.569 37.44 268.349 37.58 267.989 37.74C266.149 38.42 264.289 38.92 262.409 39.24C260.569 39.56 258.769 39.72 257.009 39.72C253.129 39.72 249.809 39.14 247.049 37.98C244.289 36.78 242.029 35.22 240.269 33.3C238.549 31.34 237.269 29.22 236.429 26.94C235.629 24.62 235.229 22.34 235.229 20.1C235.229 17.14 235.829 14.48 237.029 12.12C238.269 9.76 239.929 7.74 242.009 6.06C244.129 4.38 246.509 3.1 249.149 2.22C251.829 1.3 254.629 0.839998 257.549 0.839998ZM294.386 39.72C291.506 39.72 288.886 39.22 286.526 38.22C284.206 37.18 282.206 35.76 280.526 33.96C278.886 32.16 277.606 30.1 276.686 27.78C275.806 25.42 275.366 22.92 275.366 20.28C275.366 17.04 275.986 14.2 277.226 11.76C278.506 9.32 280.186 7.3 282.266 5.7C284.346 4.06 286.626 2.84 289.106 2.04C291.586 1.24 294.046 0.839998 296.486 0.839998C299.446 0.839998 302.086 1.38 304.406 2.46C306.766 3.5 308.766 4.92 310.406 6.72C312.046 8.52 313.286 10.56 314.126 12.84C315.006 15.12 315.446 17.46 315.446 19.86C315.446 22.66 314.886 25.26 313.766 27.66C312.646 30.06 311.106 32.16 309.146 33.96C307.226 35.76 304.986 37.18 302.426 38.22C299.906 39.22 297.226 39.72 294.386 39.72ZM296.366 38.22C298.606 38.22 300.606 37.58 302.366 36.3C304.126 35.02 305.506 33.14 306.506 30.66C307.546 28.18 308.066 25.16 308.066 21.6C308.066 17.92 307.506 14.64 306.386 11.76C305.266 8.88 303.666 6.62 301.586 4.98C299.506 3.3 297.006 2.46 294.086 2.46C290.446 2.46 287.646 3.84 285.686 6.6C283.726 9.36 282.746 13.18 282.746 18.06C282.746 20.98 283.086 23.68 283.766 26.16C284.446 28.6 285.386 30.74 286.586 32.58C287.826 34.38 289.266 35.78 290.906 36.78C292.586 37.74 294.406 38.22 296.366 38.22ZM333.723 38.76C335.243 38.76 336.463 38.32 337.383 37.44C338.343 36.52 339.043 35.34 339.483 33.9C339.963 32.46 340.203 30.94 340.203 29.34C340.203 26.06 339.343 23.6 337.623 21.96C335.903 20.32 333.503 19.5 330.423 19.5C330.263 19.5 330.183 19.38 330.183 19.14C330.183 18.9 330.263 18.78 330.423 18.78C333.383 18.78 335.543 18 336.903 16.44C338.303 14.88 339.003 12.76 339.003 10.08C339.003 7.32 338.523 5.22 337.563 3.78C336.643 2.34 335.263 1.62 333.423 1.62C332.063 1.62 330.703 2.1 329.343 3.06C328.023 3.98 326.823 5.26 325.743 6.9C324.703 8.5 323.923 10.34 323.403 12.42C323.363 12.54 323.243 12.58 323.043 12.54C322.843 12.5 322.743 12.44 322.743 12.36L323.583 3.84C323.663 3.36 323.743 3.04 323.823 2.88C323.903 2.72 324.123 2.58 324.483 2.46C326.123 1.9 327.763 1.5 329.403 1.26C331.043 0.979998 332.603 0.839998 334.083 0.839998C336.843 0.839998 339.103 1.22 340.863 1.98C342.663 2.74 343.983 3.74 344.823 4.98C345.703 6.18 346.143 7.48 346.143 8.88C346.143 10.32 345.743 11.66 344.943 12.9C344.183 14.1 343.183 15.16 341.943 16.08C340.743 17 339.443 17.74 338.043 18.3C336.683 18.86 335.383 19.18 334.143 19.26L334.983 18.78C337.463 18.78 339.663 19.18 341.583 19.98C343.503 20.74 345.003 21.84 346.083 23.28C347.203 24.68 347.763 26.36 347.763 28.32C347.763 30.52 347.063 32.48 345.663 34.2C344.263 35.92 342.383 37.28 340.023 38.28C337.703 39.24 335.123 39.72 332.283 39.72C330.563 39.72 328.863 39.52 327.183 39.12C325.543 38.76 324.263 38.2 323.343 37.44C322.983 37.24 322.763 37.06 322.683 36.9C322.603 36.74 322.543 36.46 322.503 36.06L321.783 27.96C321.783 27.88 321.883 27.82 322.083 27.78C322.323 27.74 322.463 27.78 322.503 27.9C322.823 29.94 323.523 31.78 324.603 33.42C325.723 35.06 327.063 36.36 328.623 37.32C330.223 38.28 331.923 38.76 333.723 38.76ZM391.081 38.28C391.441 38.28 391.641 38.32 391.681 38.4C391.761 38.44 391.801 38.64 391.801 39C391.801 39.64 391.741 40.34 391.621 41.1C391.541 41.9 391.441 42.94 391.321 44.22C391.201 45.54 391.141 47.3 391.141 49.5C391.141 49.66 391.021 49.74 390.781 49.74C390.541 49.74 390.421 49.66 390.421 49.5C390.421 46.18 389.401 43.6 387.361 41.76C385.361 39.92 382.441 39 378.601 39H363.481C361.041 39 359.081 39.34 357.601 40.02C356.161 40.74 355.101 41.86 354.421 43.38C353.781 44.94 353.461 46.98 353.461 49.5C353.461 49.66 353.341 49.74 353.101 49.74C352.861 49.74 352.741 49.66 352.741 49.5C352.741 47.86 352.681 46.42 352.561 45.18C352.481 43.98 352.381 42.94 352.261 42.06C352.141 41.22 352.021 40.52 351.901 39.96C351.821 39.4 351.781 38.96 351.781 38.64C351.781 38.28 351.801 38.08 351.841 38.04C351.921 37.96 352.141 37.92 352.501 37.92C354.101 37.92 355.561 37.38 356.881 36.3C358.241 35.22 359.441 33.78 360.481 31.98C361.561 30.18 362.501 28.18 363.301 25.98C364.101 23.74 364.761 21.46 365.281 19.14C365.801 16.82 366.181 14.62 366.421 12.54C366.701 10.42 366.841 8.58 366.841 7.02C366.841 6.02 366.601 5.18 366.121 4.5C365.641 3.78 364.921 3.22 363.961 2.82C363.001 2.42 361.801 2.22 360.361 2.22C360.241 2.22 360.181 2.1 360.181 1.86C360.181 1.62 360.241 1.5 360.361 1.5C360.601 1.5 361.281 1.5 362.401 1.5C363.561 1.5 365.001 1.5 366.721 1.5C368.481 1.5 370.361 1.5 372.361 1.5C374.401 1.5 376.421 1.5 378.421 1.5C380.421 1.5 382.261 1.5 383.941 1.5C385.621 1.5 387.001 1.5 388.081 1.5C389.161 1.5 389.781 1.5 389.941 1.5C390.061 1.5 390.121 1.62 390.121 1.86C390.121 2.1 390.061 2.22 389.941 2.22C388.621 2.22 387.621 2.34 386.941 2.58C386.301 2.78 385.861 3.18 385.621 3.78C385.381 4.34 385.261 5.2 385.261 6.36V34.14C385.261 35.14 385.281 35.94 385.321 36.54C385.401 37.1 385.601 37.5 385.921 37.74C386.281 37.98 386.861 38.14 387.661 38.22C388.461 38.26 389.601 38.28 391.081 38.28ZM378.601 34.02V6.48C378.601 5.32 378.541 4.52 378.421 4.08C378.341 3.6 378.101 3.32 377.701 3.24C377.301 3.12 376.601 3.06 375.601 3.06H372.121C370.961 3.06 370.161 3.2 369.721 3.48C369.321 3.76 369.061 4.32 368.941 5.16C368.861 5.96 368.741 7.16 368.581 8.76C368.461 10.08 368.261 11.62 367.981 13.38C367.741 15.1 367.421 16.94 367.021 18.9C366.621 20.86 366.121 22.84 365.521 24.84C364.961 26.8 364.301 28.66 363.541 30.42C362.781 32.18 361.881 33.74 360.841 35.1C359.841 36.42 358.701 37.44 357.421 38.16L357.061 37.38H375.301C376.381 37.38 377.141 37.36 377.581 37.32C378.061 37.24 378.341 36.98 378.421 36.54C378.541 36.06 378.601 35.22 378.601 34.02ZM406.15 21.06L407.05 19.38H419.41L419.83 21.06H406.15ZM436.09 38.28C436.29 38.28 436.39 38.4 436.39 38.64C436.39 38.88 436.29 39 436.09 39C434.89 39 433.63 38.96 432.31 38.88C431.03 38.8 429.79 38.76 428.59 38.76C427.23 38.76 426.05 38.8 425.05 38.88C424.05 38.96 422.93 39 421.69 39C421.53 39 421.45 38.88 421.45 38.64C421.45 38.4 421.53 38.28 421.69 38.28C423.33 38.28 424.27 37.96 424.51 37.32C424.79 36.64 424.43 35.32 423.43 33.36L411.25 9.3L414.19 4.14L402.25 30.48C401.17 32.88 401.15 34.78 402.19 36.18C403.23 37.58 404.87 38.28 407.11 38.28C407.31 38.28 407.41 38.4 407.41 38.64C407.41 38.88 407.31 39 407.11 39C405.91 39 404.81 38.96 403.81 38.88C402.81 38.8 401.55 38.76 400.03 38.76C398.47 38.76 397.21 38.8 396.25 38.88C395.33 38.96 394.19 39 392.83 39C392.67 39 392.59 38.88 392.59 38.64C392.59 38.4 392.67 38.28 392.83 38.28C393.91 38.28 394.83 38.06 395.59 37.62C396.39 37.14 397.17 36.3 397.93 35.1C398.73 33.86 399.63 32.12 400.63 29.88L413.65 1.26C413.69 1.14 413.87 1.08 414.19 1.08C414.51 1.04 414.69 1.1 414.73 1.26L429.73 30.78C430.69 32.66 431.51 34.16 432.19 35.28C432.91 36.36 433.57 37.14 434.17 37.62C434.81 38.06 435.45 38.28 436.09 38.28ZM468.6 6.48C468.6 5.32 468.48 4.44 468.24 3.84C468.04 3.24 467.58 2.82 466.86 2.58C466.14 2.34 465.06 2.22 463.62 2.22C463.5 2.22 463.44 2.1 463.44 1.86C463.44 1.62 463.5 1.5 463.62 1.5C464.66 1.5 465.84 1.54 467.16 1.62C468.52 1.66 470.12 1.68 471.96 1.68C473.4 1.68 474.82 1.66 476.22 1.62C477.66 1.54 478.9 1.5 479.94 1.5C480.06 1.5 480.12 1.62 480.12 1.86C480.12 2.1 480.06 2.22 479.94 2.22C478.62 2.22 477.62 2.34 476.94 2.58C476.26 2.78 475.8 3.18 475.56 3.78C475.36 4.34 475.26 5.2 475.26 6.36V34.14C475.26 35.3 475.36 36.18 475.56 36.78C475.8 37.38 476.26 37.78 476.94 37.98C477.62 38.18 478.62 38.28 479.94 38.28C480.06 38.28 480.12 38.4 480.12 38.64C480.12 38.88 480.06 39 479.94 39C478.9 39 477.66 38.98 476.22 38.94C474.82 38.9 473.4 38.88 471.96 38.88C470.12 38.88 468.52 38.9 467.16 38.94C465.84 38.98 464.66 39 463.62 39C463.5 39 463.44 38.88 463.44 38.64C463.44 38.4 463.5 38.28 463.62 38.28C465.06 38.28 466.14 38.18 466.86 37.98C467.58 37.78 468.04 37.38 468.24 36.78C468.48 36.18 468.6 35.3 468.6 34.14V6.48ZM445.68 20.34V18.66H471.66V20.34H445.68ZM442.56 34.14V6.36C442.56 5.2 442.44 4.34 442.2 3.78C442 3.18 441.56 2.78 440.88 2.58C440.24 2.34 439.26 2.22 437.94 2.22C437.82 2.22 437.76 2.1 437.76 1.86C437.76 1.62 437.82 1.5 437.94 1.5C438.98 1.5 440.16 1.54 441.48 1.62C442.8 1.66 444.18 1.68 445.62 1.68C447.46 1.68 449.06 1.66 450.42 1.62C451.82 1.54 453.08 1.5 454.2 1.5C454.28 1.5 454.32 1.62 454.32 1.86C454.32 2.1 454.28 2.22 454.2 2.22C452.8 2.22 451.74 2.34 451.02 2.58C450.3 2.82 449.82 3.24 449.58 3.84C449.34 4.44 449.22 5.32 449.22 6.48V34.14C449.22 35.3 449.34 36.18 449.58 36.78C449.82 37.38 450.3 37.78 451.02 37.98C451.74 38.18 452.8 38.28 454.2 38.28C454.28 38.28 454.32 38.4 454.32 38.64C454.32 38.88 454.28 39 454.2 39C453.04 39 451.78 38.98 450.42 38.94C449.06 38.9 447.46 38.88 445.62 38.88C444.18 38.88 442.78 38.9 441.42 38.94C440.06 38.98 438.86 39 437.82 39C437.74 39 437.7 38.88 437.7 38.64C437.7 38.4 437.74 38.28 437.82 38.28C439.18 38.28 440.18 38.18 440.82 37.98C441.5 37.78 441.96 37.38 442.2 36.78C442.44 36.18 442.56 35.3 442.56 34.14ZM491.86 34.8L490.6 33.66L517 5.46L518.2 6.6L491.86 34.8ZM483.64 39C483.56 39 483.52 38.88 483.52 38.64C483.52 38.4 483.56 38.28 483.64 38.28C485 38.28 486 38.18 486.64 37.98C487.32 37.78 487.78 37.38 488.02 36.78C488.26 36.18 488.38 35.3 488.38 34.14V6.36C488.38 5.2 488.26 4.34 488.02 3.78C487.82 3.18 487.38 2.78 486.7 2.58C486.06 2.34 485.08 2.22 483.76 2.22C483.64 2.22 483.58 2.1 483.58 1.86C483.58 1.62 483.64 1.5 483.76 1.5C484.8 1.5 485.98 1.54 487.3 1.62C488.62 1.66 490 1.68 491.44 1.68C493.28 1.68 494.88 1.66 496.24 1.62C497.64 1.54 498.9 1.5 500.02 1.5C500.1 1.5 500.14 1.62 500.14 1.86C500.14 2.1 500.1 2.22 500.02 2.22C498.62 2.22 497.56 2.34 496.84 2.58C496.12 2.82 495.64 3.24 495.4 3.84C495.16 4.44 495.04 5.32 495.04 6.48V34.14C495.04 35.3 495.16 36.18 495.4 36.78C495.64 37.38 496.12 37.78 496.84 37.98C497.56 38.18 498.62 38.28 500.02 38.28C500.1 38.28 500.14 38.4 500.14 38.64C500.14 38.88 500.1 39 500.02 39C498.86 39 497.6 38.98 496.24 38.94C494.88 38.9 493.28 38.88 491.44 38.88C490 38.88 488.6 38.9 487.24 38.94C485.88 38.98 484.68 39 483.64 39ZM508.72 39C508.6 39 508.54 38.88 508.54 38.64C508.54 38.4 508.6 38.28 508.72 38.28C510.16 38.28 511.24 38.18 511.96 37.98C512.68 37.78 513.14 37.38 513.34 36.78C513.58 36.18 513.7 35.3 513.7 34.14V6.48C513.7 5.32 513.58 4.44 513.34 3.84C513.14 3.24 512.68 2.82 511.96 2.58C511.24 2.34 510.16 2.22 508.72 2.22C508.6 2.22 508.54 2.1 508.54 1.86C508.54 1.62 508.6 1.5 508.72 1.5C509.76 1.5 510.94 1.54 512.26 1.62C513.62 1.66 515.22 1.68 517.06 1.68C518.5 1.68 519.92 1.66 521.32 1.62C522.76 1.54 524 1.5 525.04 1.5C525.16 1.5 525.22 1.62 525.22 1.86C525.22 2.1 525.16 2.22 525.04 2.22C523.72 2.22 522.72 2.34 522.04 2.58C521.4 2.78 520.96 3.18 520.72 3.78C520.48 4.34 520.36 5.2 520.36 6.36V34.14C520.36 35.3 520.48 36.18 520.72 36.78C520.96 37.38 521.4 37.78 522.04 37.98C522.72 38.18 523.72 38.28 525.04 38.28C525.16 38.28 525.22 38.4 525.22 38.64C525.22 38.88 525.16 39 525.04 39C524 39 522.76 38.98 521.32 38.94C519.92 38.9 518.5 38.88 517.06 38.88C515.22 38.88 513.62 38.9 512.26 38.94C510.94 38.98 509.76 39 508.72 39ZM537.337 20.34V18.66H551.377V20.34H537.337ZM533.497 34.14V6.36C533.497 5.2 533.377 4.34 533.137 3.78C532.937 3.18 532.497 2.78 531.817 2.58C531.177 2.34 530.197 2.22 528.877 2.22C528.757 2.22 528.697 2.1 528.697 1.86C528.697 1.62 528.757 1.5 528.877 1.5C529.917 1.5 531.097 1.54 532.417 1.62C533.737 1.66 535.117 1.68 536.557 1.68C538.397 1.68 539.997 1.66 541.357 1.62C542.757 1.54 544.017 1.5 545.137 1.5C545.217 1.5 545.257 1.62 545.257 1.86C545.257 2.1 545.217 2.22 545.137 2.22C543.737 2.22 542.677 2.34 541.957 2.58C541.237 2.82 540.757 3.24 540.517 3.84C540.277 4.44 540.157 5.32 540.157 6.48V34.14C540.157 35.3 540.277 36.18 540.517 36.78C540.757 37.38 541.237 37.78 541.957 37.98C542.677 38.18 543.737 38.28 545.137 38.28C545.217 38.28 545.257 38.4 545.257 38.64C545.257 38.88 545.217 39 545.137 39C543.977 39 542.717 38.98 541.357 38.94C539.997 38.9 538.397 38.88 536.557 38.88C535.117 38.88 533.717 38.9 532.357 38.94C530.997 38.98 529.797 39 528.757 39C528.677 39 528.637 38.88 528.637 38.64C528.637 38.4 528.677 38.28 528.757 38.28C530.117 38.28 531.117 38.18 531.757 37.98C532.437 37.78 532.897 37.38 533.137 36.78C533.377 36.18 533.497 35.3 533.497 34.14ZM566.437 39.72C563.677 39.72 561.177 39.22 558.937 38.22C556.697 37.18 554.757 35.76 553.117 33.96C551.517 32.16 550.277 30.1 549.397 27.78C548.557 25.42 548.137 22.92 548.137 20.28C548.137 17.04 548.737 14.2 549.937 11.76C551.177 9.32 552.797 7.3 554.797 5.7C556.837 4.06 559.057 2.84 561.457 2.04C563.857 1.24 566.237 0.839998 568.597 0.839998C571.437 0.839998 573.977 1.38 576.217 2.46C578.457 3.5 580.357 4.92 581.917 6.72C583.517 8.52 584.737 10.56 585.577 12.84C586.417 15.12 586.837 17.46 586.837 19.86C586.837 22.66 586.297 25.26 585.217 27.66C584.137 30.06 582.657 32.16 580.777 33.96C578.897 35.76 576.717 37.18 574.237 38.22C571.797 39.22 569.197 39.72 566.437 39.72ZM567.757 38.22C569.837 38.22 571.697 37.58 573.337 36.3C575.017 35.02 576.337 33.14 577.297 30.66C578.257 28.18 578.737 25.16 578.737 21.6C578.737 17.92 578.197 14.64 577.117 11.76C576.077 8.88 574.557 6.62 572.557 4.98C570.597 3.3 568.237 2.46 565.477 2.46C561.997 2.46 559.337 3.84 557.497 6.6C555.697 9.36 554.797 13.18 554.797 18.06C554.797 21.98 555.357 25.46 556.477 28.5C557.597 31.54 559.137 33.92 561.097 35.64C563.057 37.36 565.277 38.22 567.757 38.22ZM207.269 110.22C207.269 106.54 206.389 103.74 204.629 101.82C202.869 99.94 200.329 99 197.009 99H167.849C167.769 99 167.729 98.88 167.729 98.64C167.729 98.4 167.769 98.28 167.849 98.28C169.209 98.28 170.209 98.18 170.849 97.98C171.529 97.78 171.989 97.38 172.229 96.78C172.469 96.18 172.589 95.3 172.589 94.14V66.36C172.589 65.2 172.469 64.34 172.229 63.78C171.989 63.18 171.529 62.78 170.849 62.58C170.209 62.34 169.209 62.22 167.849 62.22C167.769 62.22 167.729 62.1 167.729 61.86C167.729 61.62 167.769 61.5 167.849 61.5C168.889 61.5 170.069 61.54 171.389 61.62C172.709 61.66 174.089 61.68 175.529 61.68C177.249 61.68 178.829 61.66 180.269 61.62C181.749 61.54 183.069 61.5 184.229 61.5C184.309 61.5 184.349 61.62 184.349 61.86C184.349 62.1 184.309 62.22 184.229 62.22C182.829 62.22 181.769 62.34 181.049 62.58C180.329 62.78 179.849 63.18 179.609 63.78C179.369 64.34 179.249 65.2 179.249 66.36V94.02C179.249 95.26 179.289 96.14 179.369 96.66C179.489 97.18 179.749 97.5 180.149 97.62C180.589 97.7 181.289 97.74 182.249 97.74H193.469C194.549 97.74 195.309 97.68 195.749 97.56C196.229 97.44 196.509 97.12 196.589 96.6C196.709 96.08 196.769 95.22 196.769 94.02V66.36C196.769 65.2 196.649 64.34 196.409 63.78C196.209 63.18 195.749 62.78 195.029 62.58C194.309 62.34 193.229 62.22 191.789 62.22C191.709 62.22 191.669 62.1 191.669 61.86C191.669 61.62 191.709 61.5 191.789 61.5C192.949 61.5 194.249 61.54 195.689 61.62C197.169 61.66 198.769 61.68 200.489 61.68C201.929 61.68 203.309 61.66 204.629 61.62C205.949 61.54 207.129 61.5 208.169 61.5C208.249 61.5 208.289 61.62 208.289 61.86C208.289 62.1 208.249 62.22 208.169 62.22C206.849 62.22 205.849 62.34 205.169 62.58C204.489 62.78 204.029 63.18 203.789 63.78C203.549 64.34 203.429 65.2 203.429 66.36V94.14C203.429 95.5 203.489 96.48 203.609 97.08C203.729 97.64 204.069 97.98 204.629 98.1C205.189 98.22 206.089 98.28 207.329 98.28C207.649 98.28 207.849 98.32 207.929 98.4C208.049 98.48 208.109 98.68 208.109 99C208.109 99.68 208.089 100.42 208.049 101.22C208.009 102.02 207.969 103.1 207.929 104.46C207.929 105.86 207.929 107.78 207.929 110.22C207.929 110.38 207.809 110.46 207.569 110.46C207.369 110.46 207.269 110.38 207.269 110.22ZM228.53 78.9L229.19 77.82C231.95 77.82 234.33 78.26 236.33 79.14C238.37 80.02 239.95 81.24 241.07 82.8C242.19 84.32 242.75 86.1 242.75 88.14C242.75 90.22 242.15 92.1 240.95 93.78C239.75 95.46 238.09 96.8 235.97 97.8C233.89 98.76 231.53 99.24 228.89 99.24C227.81 99.24 226.43 99.18 224.75 99.06C223.11 98.94 221.61 98.88 220.25 98.88C218.81 98.88 217.43 98.9 216.11 98.94C214.83 98.98 213.67 99 212.63 99C212.51 99 212.45 98.88 212.45 98.64C212.45 98.4 212.51 98.28 212.63 98.28C213.75 98.28 214.61 98.18 215.21 97.98C215.85 97.78 216.29 97.38 216.53 96.78C216.81 96.18 216.95 95.3 216.95 94.14V66.36C216.95 65.2 216.83 64.34 216.59 63.78C216.35 63.18 215.91 62.78 215.27 62.58C214.67 62.34 213.81 62.22 212.69 62.22C212.61 62.22 212.57 62.1 212.57 61.86C212.57 61.62 212.61 61.5 212.69 61.5C213.73 61.5 214.89 61.54 216.17 61.62C217.45 61.66 218.81 61.68 220.25 61.68C221.41 61.68 222.61 61.62 223.85 61.5C225.09 61.38 226.35 61.32 227.63 61.32C230.03 61.32 232.07 61.62 233.75 62.22C235.47 62.78 236.79 63.64 237.71 64.8C238.63 65.92 239.09 67.34 239.09 69.06C239.09 71.26 238.21 73.28 236.45 75.12C234.69 76.92 232.05 78.18 228.53 78.9ZM226.73 62.64C225.97 62.64 225.35 62.76 224.87 63C224.43 63.24 224.11 63.64 223.91 64.2C223.75 64.72 223.67 65.48 223.67 66.48V78.24L221.45 77.82C222.77 77.86 223.85 77.9 224.69 77.94C225.53 77.94 225.99 77.94 226.07 77.94C228.23 77.94 229.85 77.14 230.93 75.54C232.01 73.9 232.55 71.92 232.55 69.6C232.55 68.08 232.31 66.8 231.83 65.76C231.39 64.72 230.73 63.94 229.85 63.42C229.01 62.9 227.97 62.64 226.73 62.64ZM227.87 97.74C230.63 97.74 232.63 97.04 233.87 95.64C235.11 94.2 235.73 92.18 235.73 89.58C235.73 86.62 235.01 84.22 233.57 82.38C232.17 80.5 229.91 79.56 226.79 79.56C226.39 79.56 225.71 79.58 224.75 79.62C223.79 79.62 222.77 79.72 221.69 79.92L223.67 79.2V94.14C223.67 94.94 223.75 95.62 223.91 96.18C224.11 96.7 224.51 97.1 225.11 97.38C225.71 97.62 226.63 97.74 227.87 97.74ZM274.834 99H248.314C248.194 99 248.134 98.88 248.134 98.64C248.134 98.4 248.194 98.28 248.314 98.28C249.554 98.28 250.474 98.18 251.074 97.98C251.674 97.78 252.074 97.38 252.274 96.78C252.474 96.18 252.574 95.3 252.574 94.14V66.36C252.574 65.2 252.474 64.34 252.274 63.78C252.074 63.18 251.674 62.78 251.074 62.58C250.474 62.34 249.554 62.22 248.314 62.22C248.194 62.22 248.134 62.1 248.134 61.86C248.134 61.62 248.194 61.5 248.314 61.5H273.754C274.154 61.5 274.354 61.68 274.354 62.04L274.474 70.02C274.474 70.1 274.374 70.16 274.174 70.2C273.974 70.24 273.834 70.2 273.754 70.08C273.114 67.72 272.034 66 270.514 64.92C268.994 63.8 266.994 63.24 264.514 63.24H262.714C261.914 63.24 261.254 63.36 260.734 63.6C260.214 63.8 259.834 64.14 259.594 64.62C259.354 65.1 259.234 65.7 259.234 66.42V93.9C259.234 94.66 259.334 95.3 259.534 95.82C259.734 96.34 260.034 96.72 260.434 96.96C260.834 97.2 261.354 97.32 261.994 97.32H263.974C267.094 97.32 269.594 96.68 271.474 95.4C273.354 94.12 274.734 92.14 275.614 89.46C275.654 89.34 275.774 89.32 275.974 89.4C276.214 89.44 276.334 89.5 276.334 89.58C276.174 90.74 276.034 92.12 275.914 93.72C275.794 95.28 275.734 96.74 275.734 98.1C275.734 98.7 275.434 99 274.834 99ZM271.474 85.62C271.474 83.98 270.854 82.7 269.614 81.78C268.374 80.82 266.554 80.34 264.154 80.34H256.054V78.66H264.214C266.574 78.66 268.354 78.26 269.554 77.46C270.794 76.62 271.414 75.5 271.414 74.1C271.414 73.98 271.514 73.92 271.714 73.92C271.954 73.92 272.074 73.98 272.074 74.1C272.074 75.42 272.054 76.46 272.014 77.22C272.014 77.94 272.014 78.7 272.014 79.5C272.014 80.5 272.034 81.48 272.074 82.44C272.154 83.4 272.194 84.46 272.194 85.62C272.194 85.7 272.074 85.74 271.834 85.74C271.594 85.74 271.474 85.7 271.474 85.62ZM292.279 62.88C289.839 62.88 287.759 63.7 286.039 65.34C284.359 66.94 283.019 69.22 282.019 72.18C281.979 72.3 281.859 72.36 281.659 72.36C281.459 72.32 281.359 72.24 281.359 72.12C281.439 71.56 281.519 70.78 281.599 69.78C281.679 68.74 281.759 67.62 281.839 66.42C281.959 65.22 282.039 64.06 282.079 62.94C282.159 61.82 282.199 60.9 282.199 60.18C282.199 59.98 282.299 59.88 282.499 59.88C282.739 59.88 282.859 59.98 282.859 60.18C282.859 60.58 283.059 60.88 283.459 61.08C283.899 61.24 284.379 61.36 284.899 61.44C285.459 61.48 285.919 61.5 286.279 61.5C289.719 61.62 293.739 61.68 298.339 61.68C301.139 61.68 303.379 61.66 305.059 61.62C306.739 61.54 308.359 61.5 309.919 61.5C311.359 61.5 312.439 61.42 313.159 61.26C313.919 61.06 314.399 60.64 314.599 60C314.639 59.84 314.759 59.76 314.959 59.76C315.199 59.76 315.319 59.84 315.319 60C315.239 60.64 315.159 61.54 315.079 62.7C315.039 63.82 314.979 65.02 314.899 66.3C314.859 67.54 314.819 68.7 314.779 69.78C314.739 70.82 314.719 71.6 314.719 72.12C314.719 72.24 314.619 72.3 314.419 72.3C314.219 72.3 314.099 72.24 314.059 72.12C313.459 68.96 312.319 66.64 310.639 65.16C308.999 63.64 306.999 62.88 304.639 62.88C303.839 62.88 303.219 63 302.779 63.24C302.379 63.44 302.099 63.8 301.939 64.32C301.819 64.84 301.759 65.56 301.759 66.48V94.14C301.759 95.3 301.879 96.18 302.119 96.78C302.359 97.38 302.819 97.78 303.499 97.98C304.219 98.18 305.299 98.28 306.739 98.28C306.859 98.28 306.919 98.4 306.919 98.64C306.919 98.88 306.859 99 306.739 99C305.619 99 304.359 98.98 302.959 98.94C301.559 98.9 300.019 98.88 298.339 98.88C296.739 98.88 295.239 98.9 293.839 98.94C292.439 98.98 291.159 99 289.999 99C289.879 99 289.819 98.88 289.819 98.64C289.819 98.4 289.879 98.28 289.999 98.28C291.399 98.28 292.459 98.18 293.179 97.98C293.899 97.78 294.379 97.38 294.619 96.78C294.899 96.18 295.039 95.3 295.039 94.14V66.36C295.039 65.48 294.959 64.8 294.799 64.32C294.679 63.8 294.419 63.44 294.019 63.24C293.619 63 293.039 62.88 292.279 62.88ZM338.419 99.72C335.539 99.72 332.919 99.22 330.559 98.22C328.239 97.18 326.239 95.76 324.559 93.96C322.919 92.16 321.639 90.1 320.719 87.78C319.839 85.42 319.399 82.92 319.399 80.28C319.399 77.04 320.019 74.2 321.259 71.76C322.539 69.32 324.219 67.3 326.299 65.7C328.379 64.06 330.659 62.84 333.139 62.04C335.619 61.24 338.079 60.84 340.519 60.84C343.479 60.84 346.119 61.38 348.439 62.46C350.799 63.5 352.799 64.92 354.439 66.72C356.079 68.52 357.319 70.56 358.159 72.84C359.039 75.12 359.479 77.46 359.479 79.86C359.479 82.66 358.919 85.26 357.799 87.66C356.679 90.06 355.139 92.16 353.179 93.96C351.259 95.76 349.019 97.18 346.459 98.22C343.939 99.22 341.259 99.72 338.419 99.72ZM340.399 98.22C342.639 98.22 344.639 97.58 346.399 96.3C348.159 95.02 349.539 93.14 350.539 90.66C351.579 88.18 352.099 85.16 352.099 81.6C352.099 77.92 351.539 74.64 350.419 71.76C349.299 68.88 347.699 66.62 345.619 64.98C343.539 63.3 341.039 62.46 338.119 62.46C334.479 62.46 331.679 63.84 329.719 66.6C327.759 69.36 326.779 73.18 326.779 78.06C326.779 80.98 327.119 83.68 327.799 86.16C328.479 88.6 329.419 90.74 330.619 92.58C331.859 94.38 333.299 95.78 334.939 96.78C336.619 97.74 338.439 98.22 340.399 98.22ZM387.356 66.48C387.356 65.32 387.256 64.44 387.056 63.84C386.896 63.24 386.536 62.82 385.976 62.58C385.416 62.34 384.576 62.22 383.456 62.22C383.336 62.22 383.276 62.1 383.276 61.86C383.276 61.62 383.336 61.5 383.456 61.5C384.496 61.5 385.656 61.54 386.936 61.62C388.216 61.66 389.596 61.68 391.076 61.68C392.516 61.68 393.896 61.66 395.216 61.62C396.536 61.54 397.716 61.5 398.756 61.5C398.836 61.5 398.876 61.62 398.876 61.86C398.876 62.1 398.836 62.22 398.756 62.22C397.436 62.22 396.436 62.34 395.756 62.58C395.076 62.78 394.616 63.18 394.376 63.78C394.136 64.34 394.016 65.2 394.016 66.36V94.14C394.016 95.3 394.136 96.18 394.376 96.78C394.616 97.38 395.076 97.78 395.756 97.98C396.436 98.18 397.436 98.28 398.756 98.28C398.836 98.28 398.876 98.4 398.876 98.64C398.876 98.88 398.836 99 398.756 99C397.716 99 396.536 98.98 395.216 98.94C393.896 98.9 392.516 98.88 391.076 98.88C389.436 98.88 387.916 98.9 386.516 98.94C385.156 98.98 383.896 99 382.736 99C382.656 99 382.616 98.88 382.616 98.64C382.616 98.4 382.656 98.28 382.736 98.28C384.096 98.28 385.096 98.18 385.736 97.98C386.376 97.78 386.796 97.38 386.996 96.78C387.236 96.18 387.356 95.3 387.356 94.14V66.48ZM389.036 79.26C387.196 80.86 385.376 82.1 383.576 82.98C381.776 83.82 379.696 84.24 377.336 84.24C373.936 84.24 371.296 83.38 369.416 81.66C367.536 79.9 366.596 77.52 366.596 74.52V66.36C366.596 65.2 366.496 64.34 366.296 63.78C366.136 63.18 365.776 62.78 365.216 62.58C364.656 62.34 363.816 62.22 362.696 62.22C362.576 62.22 362.516 62.1 362.516 61.86C362.516 61.62 362.576 61.5 362.696 61.5C363.216 61.5 363.656 61.52 364.016 61.56C364.416 61.6 364.996 61.64 365.756 61.68C366.556 61.68 367.816 61.68 369.536 61.68C371.656 61.68 373.276 61.66 374.396 61.62C375.516 61.54 376.456 61.5 377.216 61.5C377.296 61.5 377.336 61.62 377.336 61.86C377.336 62.1 377.296 62.22 377.216 62.22C375.536 62.22 374.456 62.5 373.976 63.06C373.496 63.62 373.256 64.76 373.256 66.48V72.42C373.256 75.26 373.796 77.4 374.876 78.84C375.996 80.28 377.896 81 380.576 81C381.816 81 383.036 80.84 384.236 80.52C385.476 80.16 386.896 79.6 388.496 78.84L389.036 79.26ZM433.18 66.48C433.18 65.32 433.06 64.44 432.82 63.84C432.62 63.24 432.16 62.82 431.44 62.58C430.72 62.34 429.64 62.22 428.2 62.22C428.08 62.22 428.02 62.1 428.02 61.86C428.02 61.62 428.08 61.5 428.2 61.5C429.24 61.5 430.42 61.54 431.74 61.62C433.1 61.66 434.7 61.68 436.54 61.68C437.98 61.68 439.4 61.66 440.8 61.62C442.24 61.54 443.48 61.5 444.52 61.5C444.64 61.5 444.7 61.62 444.7 61.86C444.7 62.1 444.64 62.22 444.52 62.22C443.2 62.22 442.2 62.34 441.52 62.58C440.84 62.78 440.38 63.18 440.14 63.78C439.94 64.34 439.84 65.2 439.84 66.36V94.14C439.84 95.3 439.94 96.18 440.14 96.78C440.38 97.38 440.84 97.78 441.52 97.98C442.2 98.18 443.2 98.28 444.52 98.28C444.64 98.28 444.7 98.4 444.7 98.64C444.7 98.88 444.64 99 444.52 99C443.48 99 442.24 98.98 440.8 98.94C439.4 98.9 437.98 98.88 436.54 98.88C434.7 98.88 433.1 98.9 431.74 98.94C430.42 98.98 429.24 99 428.2 99C428.08 99 428.02 98.88 428.02 98.64C428.02 98.4 428.08 98.28 428.2 98.28C429.64 98.28 430.72 98.18 431.44 97.98C432.16 97.78 432.62 97.38 432.82 96.78C433.06 96.18 433.18 95.3 433.18 94.14V66.48ZM410.26 80.34V78.66H436.24V80.34H410.26ZM407.14 94.14V66.36C407.14 65.2 407.02 64.34 406.78 63.78C406.58 63.18 406.14 62.78 405.46 62.58C404.82 62.34 403.84 62.22 402.52 62.22C402.4 62.22 402.34 62.1 402.34 61.86C402.34 61.62 402.4 61.5 402.52 61.5C403.56 61.5 404.74 61.54 406.06 61.62C407.38 61.66 408.76 61.68 410.2 61.68C412.04 61.68 413.64 61.66 415 61.62C416.4 61.54 417.66 61.5 418.78 61.5C418.86 61.5 418.9 61.62 418.9 61.86C418.9 62.1 418.86 62.22 418.78 62.22C417.38 62.22 416.32 62.34 415.6 62.58C414.88 62.82 414.4 63.24 414.16 63.84C413.92 64.44 413.8 65.32 413.8 66.48V94.14C413.8 95.3 413.92 96.18 414.16 96.78C414.4 97.38 414.88 97.78 415.6 97.98C416.32 98.18 417.38 98.28 418.78 98.28C418.86 98.28 418.9 98.4 418.9 98.64C418.9 98.88 418.86 99 418.78 99C417.62 99 416.36 98.98 415 98.94C413.64 98.9 412.04 98.88 410.2 98.88C408.76 98.88 407.36 98.9 406 98.94C404.64 98.98 403.44 99 402.4 99C402.32 99 402.28 98.88 402.28 98.64C402.28 98.4 402.32 98.28 402.4 98.28C403.76 98.28 404.76 98.18 405.4 97.98C406.08 97.78 406.54 97.38 406.78 96.78C407.02 96.18 407.14 95.3 407.14 94.14ZM465.44 99.24C464.72 99.24 463.84 99.2 462.8 99.12C461.8 99.08 460.74 99.04 459.62 99C458.5 98.92 457.36 98.88 456.2 98.88C455.08 98.88 453.82 98.9 452.42 98.94C451.06 98.98 449.88 99 448.88 99C448.76 99 448.7 98.88 448.7 98.64C448.7 98.4 448.76 98.28 448.88 98.28C450.08 98.2 450.98 98.1 451.58 97.98C452.22 97.82 452.64 97.46 452.84 96.9C453.08 96.34 453.2 95.42 453.2 94.14V66.36C453.2 65.08 453.1 64.16 452.9 63.6C452.7 63.04 452.28 62.7 451.64 62.58C451.04 62.42 450.14 62.3 448.94 62.22C448.86 62.22 448.82 62.1 448.82 61.86C448.82 61.62 448.86 61.5 448.94 61.5C450.02 61.5 451.14 61.54 452.3 61.62C453.46 61.66 454.86 61.68 456.5 61.68C458.14 61.68 459.66 61.66 461.06 61.62C462.5 61.54 463.78 61.5 464.9 61.5C464.98 61.5 465.02 61.62 465.02 61.86C465.02 62.1 464.98 62.22 464.9 62.22C463.58 62.3 462.56 62.42 461.84 62.58C461.12 62.74 460.62 63.1 460.34 63.66C460.06 64.22 459.92 65.16 459.92 66.48V94.14C459.92 94.86 460.02 95.5 460.22 96.06C460.42 96.58 460.84 97 461.48 97.32C462.12 97.6 463.08 97.74 464.36 97.74C467.2 97.74 469.18 97 470.3 95.52C471.42 94 471.98 91.72 471.98 88.68C471.98 86.6 471.72 84.88 471.2 83.52C470.72 82.16 469.88 81.16 468.68 80.52C467.52 79.84 465.92 79.5 463.88 79.5C462.96 79.5 461.9 79.58 460.7 79.74C459.54 79.86 458.34 80.04 457.1 80.28L456.74 78.9C458.26 78.54 459.82 78.28 461.42 78.12C463.06 77.92 464.56 77.82 465.92 77.82C468.72 77.82 471.08 78.2 473 78.96C474.96 79.68 476.44 80.78 477.44 82.26C478.48 83.7 479 85.5 479 87.66C479 90.02 478.42 92.08 477.26 93.84C476.1 95.56 474.5 96.9 472.46 97.86C470.42 98.78 468.08 99.24 465.44 99.24ZM492.68 94.14C492.68 95.3 492.78 96.18 492.98 96.78C493.18 97.38 493.58 97.78 494.18 97.98C494.78 98.18 495.7 98.28 496.94 98.28C497.06 98.28 497.12 98.4 497.12 98.64C497.12 98.88 497.06 99 496.94 99C495.9 99 494.74 98.98 493.46 98.94C492.18 98.9 490.78 98.88 489.26 98.88C487.82 98.88 486.44 98.9 485.12 98.94C483.8 98.98 482.62 99 481.58 99C481.5 99 481.46 98.88 481.46 98.64C481.46 98.4 481.5 98.28 481.58 98.28C482.82 98.28 483.74 98.18 484.34 97.98C484.98 97.78 485.4 97.38 485.6 96.78C485.84 96.18 485.96 95.3 485.96 94.14V66.36C485.96 65.2 485.84 64.34 485.6 63.78C485.4 63.18 484.98 62.78 484.34 62.58C483.74 62.34 482.82 62.22 481.58 62.22C481.5 62.22 481.46 62.1 481.46 61.86C481.46 61.62 481.5 61.5 481.58 61.5C482.62 61.5 483.8 61.54 485.12 61.62C486.44 61.66 487.82 61.68 489.26 61.68C490.78 61.68 492.18 61.66 493.46 61.62C494.78 61.54 495.94 61.5 496.94 61.5C497.06 61.5 497.12 61.62 497.12 61.86C497.12 62.1 497.06 62.22 496.94 62.22C495.74 62.22 494.82 62.34 494.18 62.58C493.58 62.82 493.18 63.24 492.98 63.84C492.78 64.44 492.68 65.32 492.68 66.48V94.14ZM506.526 91.38L507.126 62.88L508.866 63L508.206 91.38C508.166 93.5 508.586 95.18 509.466 96.42C510.386 97.66 511.666 98.28 513.306 98.28C513.426 98.28 513.486 98.4 513.486 98.64C513.486 98.88 513.426 99 513.306 99C512.426 99 511.526 98.98 510.606 98.94C509.686 98.9 508.646 98.88 507.486 98.88C506.206 98.88 505.046 98.9 504.006 98.94C502.966 98.98 502.006 99 501.126 99C501.006 99 500.946 98.88 500.946 98.64C500.946 98.4 501.006 98.28 501.126 98.28C502.766 98.28 504.066 97.66 505.026 96.42C505.986 95.18 506.486 93.5 506.526 91.38ZM549.486 98.28C549.566 98.28 549.606 98.4 549.606 98.64C549.606 98.88 549.566 99 549.486 99C548.446 99 547.266 98.98 545.946 98.94C544.626 98.9 543.246 98.88 541.806 98.88C540.326 98.88 538.946 98.9 537.666 98.94C536.386 98.98 535.226 99 534.186 99C534.066 99 534.006 98.88 534.006 98.64C534.006 98.4 534.066 98.28 534.186 98.28C536.066 98.28 537.266 98.02 537.786 97.5C538.346 96.98 538.566 95.86 538.446 94.14L537.066 67.5L540.126 62.7L524.826 98.58C524.786 98.74 524.626 98.82 524.346 98.82C524.106 98.82 523.946 98.74 523.866 98.58L507.006 66.48C505.486 63.64 503.666 62.22 501.546 62.22C501.426 62.22 501.366 62.1 501.366 61.86C501.366 61.62 501.426 61.5 501.546 61.5C502.386 61.5 503.266 61.52 504.186 61.56C505.106 61.6 505.886 61.62 506.526 61.62C507.566 61.62 508.466 61.6 509.226 61.56C510.026 61.52 510.646 61.5 511.086 61.5C511.646 61.5 512.066 61.7 512.346 62.1C512.666 62.5 513.166 63.34 513.846 64.62L527.286 89.82L524.286 95.22L538.326 63C538.566 62.44 538.806 62.06 539.046 61.86C539.326 61.62 539.686 61.5 540.126 61.5C540.526 61.5 540.946 61.52 541.386 61.56C541.826 61.6 542.346 61.62 542.946 61.62C544.226 61.62 545.306 61.6 546.186 61.56C547.106 61.52 548.006 61.5 548.886 61.5C549.006 61.5 549.066 61.62 549.066 61.86C549.066 62.1 549.006 62.22 548.886 62.22C547.046 62.22 545.686 62.6 544.806 63.36C543.966 64.12 543.586 65.3 543.666 66.9L545.106 94.14C545.186 95.3 545.326 96.18 545.526 96.78C545.766 97.38 546.186 97.78 546.786 97.98C547.386 98.18 548.286 98.28 549.486 98.28ZM30.611 159C30.251 159 29.911 158.94 29.591 158.82C29.311 158.7 28.891 158.34 28.331 157.74C27.811 157.14 27.051 156.16 26.051 154.8C25.051 153.4 23.671 151.44 21.911 148.92C20.631 147.12 19.591 145.64 18.791 144.48C17.991 143.32 17.271 142.44 16.631 141.84C16.031 141.2 15.391 140.76 14.711 140.52C14.031 140.24 13.171 140.1 12.131 140.1C11.771 140.1 11.391 140.12 10.991 140.16C10.591 140.2 10.171 140.24 9.73102 140.28L9.67102 139.2C12.431 139.08 14.611 139.02 16.211 139.02C17.691 139.02 18.931 139.14 19.931 139.38C20.931 139.58 21.831 140 22.631 140.64C23.471 141.24 24.351 142.12 25.271 143.28C26.231 144.4 27.371 145.88 28.691 147.72C30.291 149.92 31.671 151.8 32.831 153.36C34.031 154.92 35.171 156.12 36.251 156.96C37.371 157.8 38.571 158.24 39.851 158.28C39.971 158.28 40.031 158.4 40.031 158.64C40.031 158.88 39.971 159 39.851 159H30.611ZM0.791016 159C0.671016 159 0.611016 158.88 0.611016 158.64C0.611016 158.4 0.671016 158.28 0.791016 158.28C2.11102 158.28 3.11102 158.18 3.79102 157.98C4.47102 157.78 4.91102 157.38 5.11102 156.78C5.35102 156.18 5.47102 155.3 5.47102 154.14V126.36C5.47102 125.2 5.35102 124.34 5.11102 123.78C4.91102 123.18 4.47102 122.78 3.79102 122.58C3.15102 122.34 2.17102 122.22 0.851016 122.22C0.731016 122.22 0.671016 122.1 0.671016 121.86C0.671016 121.62 0.731016 121.5 0.851016 121.5C1.89102 121.5 3.05102 121.54 4.33102 121.62C5.61102 121.66 6.97102 121.68 8.41102 121.68C10.051 121.68 11.571 121.66 12.971 121.62C14.411 121.54 15.671 121.5 16.751 121.5C16.871 121.5 16.931 121.62 16.931 121.86C16.931 122.1 16.871 122.22 16.751 122.22C15.471 122.22 14.491 122.34 13.811 122.58C13.131 122.82 12.671 123.24 12.431 123.84C12.231 124.44 12.131 125.32 12.131 126.48V154.14C12.131 155.3 12.231 156.18 12.431 156.78C12.671 157.38 13.111 157.78 13.751 157.98C14.431 158.18 15.431 158.28 16.751 158.28C16.871 158.28 16.931 158.4 16.931 158.64C16.931 158.88 16.871 159 16.751 159C15.631 159 14.371 158.98 12.971 158.94C11.571 158.9 10.051 158.88 8.41102 158.88C6.97102 158.88 5.59102 158.9 4.27102 158.94C2.99102 158.98 1.83102 159 0.791016 159ZM16.991 139.98L15.911 139.44L22.511 130.38C24.311 127.9 25.111 125.92 24.911 124.44C24.751 122.96 23.951 122.22 22.511 122.22C22.431 122.22 22.391 122.1 22.391 121.86C22.391 121.62 22.431 121.5 22.511 121.5C23.471 121.5 24.551 121.54 25.751 121.62C26.951 121.66 28.351 121.68 29.951 121.68C31.791 121.68 33.231 121.66 34.271 121.62C35.351 121.54 36.391 121.5 37.391 121.5C37.511 121.5 37.571 121.62 37.571 121.86C37.571 122.1 37.511 122.22 37.391 122.22C36.231 122.22 34.951 122.52 33.551 123.12C32.151 123.68 30.771 124.48 29.411 125.52C28.091 126.52 26.911 127.66 25.871 128.94L16.991 139.98ZM59.1612 159.72C56.2812 159.72 53.6612 159.22 51.3012 158.22C48.9812 157.18 46.9812 155.76 45.3012 153.96C43.6612 152.16 42.3812 150.1 41.4612 147.78C40.5812 145.42 40.1412 142.92 40.1412 140.28C40.1412 137.04 40.7612 134.2 42.0012 131.76C43.2812 129.32 44.9612 127.3 47.0412 125.7C49.1212 124.06 51.4012 122.84 53.8812 122.04C56.3612 121.24 58.8212 120.84 61.2612 120.84C64.2212 120.84 66.8612 121.38 69.1812 122.46C71.5412 123.5 73.5412 124.92 75.1812 126.72C76.8212 128.52 78.0612 130.56 78.9012 132.84C79.7812 135.12 80.2212 137.46 80.2212 139.86C80.2212 142.66 79.6612 145.26 78.5412 147.66C77.4212 150.06 75.8812 152.16 73.9212 153.96C72.0012 155.76 69.7612 157.18 67.2012 158.22C64.6812 159.22 62.0012 159.72 59.1612 159.72ZM61.1412 158.22C63.3812 158.22 65.3812 157.58 67.1412 156.3C68.9012 155.02 70.2812 153.14 71.2812 150.66C72.3212 148.18 72.8412 145.16 72.8412 141.6C72.8412 137.92 72.2812 134.64 71.1612 131.76C70.0412 128.88 68.4412 126.62 66.3612 124.98C64.2812 123.3 61.7812 122.46 58.8612 122.46C55.2212 122.46 52.4212 123.84 50.4612 126.6C48.5012 129.36 47.5212 133.18 47.5212 138.06C47.5212 140.98 47.8612 143.68 48.5412 146.16C49.2212 148.6 50.1612 150.74 51.3612 152.58C52.6012 154.38 54.0412 155.78 55.6812 156.78C57.3612 157.74 59.1812 158.22 61.1412 158.22ZM90.1587 151.38L90.7587 122.88L92.4987 123L91.8387 151.38C91.7987 153.5 92.2187 155.18 93.0987 156.42C94.0187 157.66 95.2987 158.28 96.9387 158.28C97.0587 158.28 97.1187 158.4 97.1187 158.64C97.1187 158.88 97.0587 159 96.9387 159C96.0587 159 95.1587 158.98 94.2387 158.94C93.3187 158.9 92.2787 158.88 91.1187 158.88C89.8387 158.88 88.6787 158.9 87.6387 158.94C86.5987 158.98 85.6387 159 84.7587 159C84.6387 159 84.5787 158.88 84.5787 158.64C84.5787 158.4 84.6387 158.28 84.7587 158.28C86.3987 158.28 87.6987 157.66 88.6587 156.42C89.6187 155.18 90.1187 153.5 90.1587 151.38ZM133.119 158.28C133.199 158.28 133.239 158.4 133.239 158.64C133.239 158.88 133.199 159 133.119 159C132.079 159 130.899 158.98 129.579 158.94C128.259 158.9 126.879 158.88 125.439 158.88C123.959 158.88 122.579 158.9 121.299 158.94C120.019 158.98 118.859 159 117.819 159C117.699 159 117.639 158.88 117.639 158.64C117.639 158.4 117.699 158.28 117.819 158.28C119.699 158.28 120.899 158.02 121.419 157.5C121.979 156.98 122.199 155.86 122.079 154.14L120.699 127.5L123.759 122.7L108.459 158.58C108.419 158.74 108.259 158.82 107.979 158.82C107.739 158.82 107.579 158.74 107.499 158.58L90.6387 126.48C89.1187 123.64 87.2987 122.22 85.1787 122.22C85.0587 122.22 84.9987 122.1 84.9987 121.86C84.9987 121.62 85.0587 121.5 85.1787 121.5C86.0187 121.5 86.8987 121.52 87.8187 121.56C88.7387 121.6 89.5187 121.62 90.1587 121.62C91.1987 121.62 92.0987 121.6 92.8587 121.56C93.6587 121.52 94.2787 121.5 94.7187 121.5C95.2787 121.5 95.6987 121.7 95.9787 122.1C96.2987 122.5 96.7987 123.34 97.4787 124.62L110.919 149.82L107.919 155.22L121.959 123C122.199 122.44 122.439 122.06 122.679 121.86C122.959 121.62 123.319 121.5 123.759 121.5C124.159 121.5 124.579 121.52 125.019 121.56C125.459 121.6 125.979 121.62 126.579 121.62C127.859 121.62 128.939 121.6 129.819 121.56C130.739 121.52 131.639 121.5 132.519 121.5C132.639 121.5 132.699 121.62 132.699 121.86C132.699 122.1 132.639 122.22 132.519 122.22C130.679 122.22 129.319 122.6 128.439 123.36C127.599 124.12 127.219 125.3 127.299 126.9L128.739 154.14C128.819 155.3 128.959 156.18 129.159 156.78C129.399 157.38 129.819 157.78 130.419 157.98C131.019 158.18 131.919 158.28 133.119 158.28ZM177.724 158.28C177.844 158.28 177.904 158.4 177.904 158.64C177.904 158.88 177.844 159 177.724 159C176.684 159 175.504 158.98 174.184 158.94C172.904 158.9 171.544 158.88 170.104 158.88C168.464 158.88 166.944 158.9 165.544 158.94C164.144 158.98 162.884 159 161.764 159C161.644 159 161.584 158.88 161.584 158.64C161.584 158.4 161.644 158.28 161.764 158.28C163.084 158.28 164.064 158.18 164.704 157.98C165.384 157.78 165.824 157.38 166.024 156.78C166.264 156.18 166.384 155.3 166.384 154.14V127.08C166.384 125.84 166.324 124.96 166.204 124.44C166.124 123.92 165.884 123.62 165.484 123.54C165.084 123.42 164.384 123.36 163.384 123.36H151.084C150.004 123.36 149.224 123.42 148.744 123.54C148.304 123.66 148.024 123.98 147.904 124.5C147.824 124.98 147.784 125.84 147.784 127.08V154.14C147.784 155.3 147.884 156.18 148.084 156.78C148.324 157.38 148.764 157.78 149.404 157.98C150.084 158.18 151.084 158.28 152.404 158.28C152.524 158.28 152.584 158.4 152.584 158.64C152.584 158.88 152.524 159 152.404 159C151.284 159 150.024 158.98 148.624 158.94C147.224 158.9 145.704 158.88 144.064 158.88C142.624 158.88 141.244 158.9 139.924 158.94C138.604 158.98 137.424 159 136.384 159C136.304 159 136.264 158.88 136.264 158.64C136.264 158.4 136.304 158.28 136.384 158.28C137.744 158.28 138.744 158.18 139.384 157.98C140.064 157.78 140.524 157.38 140.764 156.78C141.004 156.18 141.124 155.3 141.124 154.14V127.08C141.124 125.36 140.844 124.12 140.284 123.36C139.724 122.6 138.464 122.22 136.504 122.22C136.384 122.22 136.324 122.1 136.324 121.86C136.324 121.62 136.384 121.5 136.504 121.5C137.224 121.5 138.624 121.52 140.704 121.56C142.784 121.6 145.284 121.64 148.204 121.68C151.124 121.68 154.164 121.68 157.324 121.68C159.844 121.68 162.264 121.68 164.584 121.68C166.904 121.64 169.004 121.62 170.884 121.62C172.804 121.58 174.364 121.56 175.564 121.56C176.764 121.52 177.484 121.5 177.724 121.5C177.844 121.5 177.904 121.62 177.904 121.86C177.904 122.1 177.844 122.22 177.724 122.22C175.764 122.22 174.484 122.6 173.884 123.36C173.324 124.12 173.044 125.36 173.044 127.08V154.14C173.044 155.3 173.164 156.18 173.404 156.78C173.644 157.38 174.084 157.78 174.724 157.98C175.404 158.18 176.404 158.28 177.724 158.28ZM201.603 159.72C198.723 159.72 196.103 159.22 193.743 158.22C191.423 157.18 189.423 155.76 187.743 153.96C186.103 152.16 184.823 150.1 183.903 147.78C183.023 145.42 182.583 142.92 182.583 140.28C182.583 137.04 183.203 134.2 184.443 131.76C185.723 129.32 187.403 127.3 189.483 125.7C191.563 124.06 193.843 122.84 196.323 122.04C198.803 121.24 201.263 120.84 203.703 120.84C206.663 120.84 209.303 121.38 211.623 122.46C213.983 123.5 215.983 124.92 217.623 126.72C219.263 128.52 220.503 130.56 221.343 132.84C222.223 135.12 222.663 137.46 222.663 139.86C222.663 142.66 222.103 145.26 220.983 147.66C219.863 150.06 218.323 152.16 216.363 153.96C214.443 155.76 212.203 157.18 209.643 158.22C207.123 159.22 204.443 159.72 201.603 159.72ZM203.583 158.22C205.823 158.22 207.823 157.58 209.583 156.3C211.343 155.02 212.723 153.14 213.723 150.66C214.763 148.18 215.283 145.16 215.283 141.6C215.283 137.92 214.723 134.64 213.603 131.76C212.483 128.88 210.883 126.62 208.803 124.98C206.723 123.3 204.223 122.46 201.303 122.46C197.663 122.46 194.863 123.84 192.903 126.6C190.943 129.36 189.963 133.18 189.963 138.06C189.963 140.98 190.303 143.68 190.983 146.16C191.663 148.6 192.603 150.74 193.803 152.58C195.043 154.38 196.483 155.78 198.123 156.78C199.803 157.74 201.623 158.22 203.583 158.22ZM240.94 158.76C242.46 158.76 243.68 158.32 244.6 157.44C245.56 156.52 246.26 155.34 246.7 153.9C247.18 152.46 247.42 150.94 247.42 149.34C247.42 146.06 246.56 143.6 244.84 141.96C243.12 140.32 240.72 139.5 237.64 139.5C237.48 139.5 237.4 139.38 237.4 139.14C237.4 138.9 237.48 138.78 237.64 138.78C240.6 138.78 242.76 138 244.12 136.44C245.52 134.88 246.22 132.76 246.22 130.08C246.22 127.32 245.74 125.22 244.78 123.78C243.86 122.34 242.48 121.62 240.64 121.62C239.28 121.62 237.92 122.1 236.56 123.06C235.24 123.98 234.04 125.26 232.96 126.9C231.92 128.5 231.14 130.34 230.62 132.42C230.58 132.54 230.46 132.58 230.26 132.54C230.06 132.5 229.96 132.44 229.96 132.36L230.8 123.84C230.88 123.36 230.96 123.04 231.04 122.88C231.12 122.72 231.34 122.58 231.7 122.46C233.34 121.9 234.98 121.5 236.62 121.26C238.26 120.98 239.82 120.84 241.3 120.84C244.06 120.84 246.32 121.22 248.08 121.98C249.88 122.74 251.2 123.74 252.04 124.98C252.92 126.18 253.36 127.48 253.36 128.88C253.36 130.32 252.96 131.66 252.16 132.9C251.4 134.1 250.4 135.16 249.16 136.08C247.96 137 246.66 137.74 245.26 138.3C243.9 138.86 242.6 139.18 241.36 139.26L242.2 138.78C244.68 138.78 246.88 139.18 248.8 139.98C250.72 140.74 252.22 141.84 253.3 143.28C254.42 144.68 254.98 146.36 254.98 148.32C254.98 150.52 254.28 152.48 252.88 154.2C251.48 155.92 249.6 157.28 247.24 158.28C244.92 159.24 242.34 159.72 239.5 159.72C237.78 159.72 236.08 159.52 234.4 159.12C232.76 158.76 231.48 158.2 230.56 157.44C230.2 157.24 229.98 157.06 229.9 156.9C229.82 156.74 229.76 156.46 229.72 156.06L229 147.96C229 147.88 229.1 147.82 229.3 147.78C229.54 147.74 229.68 147.78 229.72 147.9C230.04 149.94 230.74 151.78 231.82 153.42C232.94 155.06 234.28 156.36 235.84 157.32C237.44 158.28 239.14 158.76 240.94 158.76ZM268.178 154.8L266.918 153.66L293.318 125.46L294.518 126.6L268.178 154.8ZM259.958 159C259.878 159 259.838 158.88 259.838 158.64C259.838 158.4 259.878 158.28 259.958 158.28C261.318 158.28 262.318 158.18 262.958 157.98C263.638 157.78 264.098 157.38 264.338 156.78C264.578 156.18 264.698 155.3 264.698 154.14V126.36C264.698 125.2 264.578 124.34 264.338 123.78C264.138 123.18 263.698 122.78 263.018 122.58C262.378 122.34 261.398 122.22 260.078 122.22C259.958 122.22 259.898 122.1 259.898 121.86C259.898 121.62 259.958 121.5 260.078 121.5C261.118 121.5 262.298 121.54 263.618 121.62C264.938 121.66 266.318 121.68 267.758 121.68C269.598 121.68 271.198 121.66 272.558 121.62C273.958 121.54 275.218 121.5 276.338 121.5C276.418 121.5 276.458 121.62 276.458 121.86C276.458 122.1 276.418 122.22 276.338 122.22C274.938 122.22 273.878 122.34 273.158 122.58C272.438 122.82 271.958 123.24 271.718 123.84C271.478 124.44 271.358 125.32 271.358 126.48V154.14C271.358 155.3 271.478 156.18 271.718 156.78C271.958 157.38 272.438 157.78 273.158 157.98C273.878 158.18 274.938 158.28 276.338 158.28C276.418 158.28 276.458 158.4 276.458 158.64C276.458 158.88 276.418 159 276.338 159C275.178 159 273.918 158.98 272.558 158.94C271.198 158.9 269.598 158.88 267.758 158.88C266.318 158.88 264.918 158.9 263.558 158.94C262.198 158.98 260.998 159 259.958 159ZM285.038 159C284.918 159 284.858 158.88 284.858 158.64C284.858 158.4 284.918 158.28 285.038 158.28C286.478 158.28 287.558 158.18 288.278 157.98C288.998 157.78 289.458 157.38 289.658 156.78C289.898 156.18 290.018 155.3 290.018 154.14V126.48C290.018 125.32 289.898 124.44 289.658 123.84C289.458 123.24 288.998 122.82 288.278 122.58C287.558 122.34 286.478 122.22 285.038 122.22C284.918 122.22 284.858 122.1 284.858 121.86C284.858 121.62 284.918 121.5 285.038 121.5C286.078 121.5 287.258 121.54 288.578 121.62C289.938 121.66 291.538 121.68 293.378 121.68C294.818 121.68 296.238 121.66 297.638 121.62C299.078 121.54 300.318 121.5 301.358 121.5C301.478 121.5 301.538 121.62 301.538 121.86C301.538 122.1 301.478 122.22 301.358 122.22C300.038 122.22 299.038 122.34 298.358 122.58C297.718 122.78 297.278 123.18 297.038 123.78C296.798 124.34 296.678 125.2 296.678 126.36V154.14C296.678 155.3 296.798 156.18 297.038 156.78C297.278 157.38 297.718 157.78 298.358 157.98C299.038 158.18 300.038 158.28 301.358 158.28C301.478 158.28 301.538 158.4 301.538 158.64C301.538 158.88 301.478 159 301.358 159C300.318 159 299.078 158.98 297.638 158.94C296.238 158.9 294.818 158.88 293.378 158.88C291.538 158.88 289.938 158.9 288.578 158.94C287.258 158.98 286.078 159 285.038 159ZM344.495 170.22C344.495 166.54 343.615 163.74 341.855 161.82C340.095 159.94 337.555 159 334.235 159H305.075C304.995 159 304.955 158.88 304.955 158.64C304.955 158.4 304.995 158.28 305.075 158.28C306.435 158.28 307.435 158.18 308.075 157.98C308.755 157.78 309.215 157.38 309.455 156.78C309.695 156.18 309.815 155.3 309.815 154.14V126.36C309.815 125.2 309.695 124.34 309.455 123.78C309.215 123.18 308.755 122.78 308.075 122.58C307.435 122.34 306.435 122.22 305.075 122.22C304.995 122.22 304.955 122.1 304.955 121.86C304.955 121.62 304.995 121.5 305.075 121.5C306.115 121.5 307.295 121.54 308.615 121.62C309.935 121.66 311.315 121.68 312.755 121.68C314.475 121.68 316.055 121.66 317.495 121.62C318.975 121.54 320.295 121.5 321.455 121.5C321.535 121.5 321.575 121.62 321.575 121.86C321.575 122.1 321.535 122.22 321.455 122.22C320.055 122.22 318.995 122.34 318.275 122.58C317.555 122.78 317.075 123.18 316.835 123.78C316.595 124.34 316.475 125.2 316.475 126.36V154.02C316.475 155.26 316.515 156.14 316.595 156.66C316.715 157.18 316.975 157.5 317.375 157.62C317.815 157.7 318.515 157.74 319.475 157.74H330.695C331.775 157.74 332.535 157.68 332.975 157.56C333.455 157.44 333.735 157.12 333.815 156.6C333.935 156.08 333.995 155.22 333.995 154.02V126.36C333.995 125.2 333.875 124.34 333.635 123.78C333.435 123.18 332.975 122.78 332.255 122.58C331.535 122.34 330.455 122.22 329.015 122.22C328.935 122.22 328.895 122.1 328.895 121.86C328.895 121.62 328.935 121.5 329.015 121.5C330.175 121.5 331.475 121.54 332.915 121.62C334.395 121.66 335.995 121.68 337.715 121.68C339.155 121.68 340.535 121.66 341.855 121.62C343.175 121.54 344.355 121.5 345.395 121.5C345.475 121.5 345.515 121.62 345.515 121.86C345.515 122.1 345.475 122.22 345.395 122.22C344.075 122.22 343.075 122.34 342.395 122.58C341.715 122.78 341.255 123.18 341.015 123.78C340.775 124.34 340.655 125.2 340.655 126.36V154.14C340.655 155.5 340.715 156.48 340.835 157.08C340.955 157.64 341.295 157.98 341.855 158.1C342.415 158.22 343.315 158.28 344.555 158.28C344.875 158.28 345.075 158.32 345.155 158.4C345.275 158.48 345.335 158.68 345.335 159C345.335 159.68 345.315 160.42 345.275 161.22C345.235 162.02 345.195 163.1 345.155 164.46C345.155 165.86 345.155 167.78 345.155 170.22C345.155 170.38 345.035 170.46 344.795 170.46C344.595 170.46 344.495 170.38 344.495 170.22ZM357.416 154.8L356.156 153.66L382.556 125.46L383.756 126.6L357.416 154.8ZM349.196 159C349.116 159 349.076 158.88 349.076 158.64C349.076 158.4 349.116 158.28 349.196 158.28C350.556 158.28 351.556 158.18 352.196 157.98C352.876 157.78 353.336 157.38 353.576 156.78C353.816 156.18 353.936 155.3 353.936 154.14V126.36C353.936 125.2 353.816 124.34 353.576 123.78C353.376 123.18 352.936 122.78 352.256 122.58C351.616 122.34 350.636 122.22 349.316 122.22C349.196 122.22 349.136 122.1 349.136 121.86C349.136 121.62 349.196 121.5 349.316 121.5C350.356 121.5 351.536 121.54 352.856 121.62C354.176 121.66 355.556 121.68 356.996 121.68C358.836 121.68 360.436 121.66 361.796 121.62C363.196 121.54 364.456 121.5 365.576 121.5C365.656 121.5 365.696 121.62 365.696 121.86C365.696 122.1 365.656 122.22 365.576 122.22C364.176 122.22 363.116 122.34 362.396 122.58C361.676 122.82 361.196 123.24 360.956 123.84C360.716 124.44 360.596 125.32 360.596 126.48V154.14C360.596 155.3 360.716 156.18 360.956 156.78C361.196 157.38 361.676 157.78 362.396 157.98C363.116 158.18 364.176 158.28 365.576 158.28C365.656 158.28 365.696 158.4 365.696 158.64C365.696 158.88 365.656 159 365.576 159C364.416 159 363.156 158.98 361.796 158.94C360.436 158.9 358.836 158.88 356.996 158.88C355.556 158.88 354.156 158.9 352.796 158.94C351.436 158.98 350.236 159 349.196 159ZM374.276 159C374.156 159 374.096 158.88 374.096 158.64C374.096 158.4 374.156 158.28 374.276 158.28C375.716 158.28 376.796 158.18 377.516 157.98C378.236 157.78 378.696 157.38 378.896 156.78C379.136 156.18 379.256 155.3 379.256 154.14V126.48C379.256 125.32 379.136 124.44 378.896 123.84C378.696 123.24 378.236 122.82 377.516 122.58C376.796 122.34 375.716 122.22 374.276 122.22C374.156 122.22 374.096 122.1 374.096 121.86C374.096 121.62 374.156 121.5 374.276 121.5C375.316 121.5 376.496 121.54 377.816 121.62C379.176 121.66 380.776 121.68 382.616 121.68C384.056 121.68 385.476 121.66 386.876 121.62C388.316 121.54 389.556 121.5 390.596 121.5C390.716 121.5 390.776 121.62 390.776 121.86C390.776 122.1 390.716 122.22 390.596 122.22C389.276 122.22 388.276 122.34 387.596 122.58C386.956 122.78 386.516 123.18 386.276 123.78C386.036 124.34 385.916 125.2 385.916 126.36V154.14C385.916 155.3 386.036 156.18 386.276 156.78C386.516 157.38 386.956 157.78 387.596 157.98C388.276 158.18 389.276 158.28 390.596 158.28C390.716 158.28 390.776 158.4 390.776 158.64C390.776 158.88 390.716 159 390.596 159C389.556 159 388.316 158.98 386.876 158.94C385.476 158.9 384.056 158.88 382.616 158.88C380.776 158.88 379.176 158.9 377.816 158.94C376.496 158.98 375.316 159 374.276 159ZM427.974 158.28C428.054 158.28 428.094 158.4 428.094 158.64C428.094 158.88 428.054 159 427.974 159C426.854 159 425.614 158.98 424.254 158.94C422.934 158.9 421.494 158.88 419.934 158.88C418.454 158.88 417.074 158.9 415.794 158.94C414.514 158.98 413.354 159 412.314 159C412.194 159 412.134 158.88 412.134 158.64C412.134 158.4 412.194 158.28 412.314 158.28C413.554 158.28 414.474 158.18 415.074 157.98C415.674 157.78 416.074 157.38 416.274 156.78C416.474 156.18 416.574 155.3 416.574 154.14V139.26L419.034 139.56C417.994 139.56 417.034 139.66 416.154 139.86C415.274 140.06 414.414 140.48 413.574 141.12C412.774 141.76 411.894 142.7 410.934 143.94C410.014 145.18 408.974 146.84 407.814 148.92C406.334 151.52 405.174 153.52 404.334 154.92C403.494 156.32 402.854 157.3 402.414 157.86C402.014 158.42 401.674 158.76 401.394 158.88C401.154 158.96 400.854 159 400.494 159H392.634C392.554 159 392.514 158.88 392.514 158.64C392.514 158.4 392.554 158.28 392.634 158.28C393.874 158.24 394.874 157.84 395.634 157.08C396.394 156.28 397.194 155.1 398.034 153.54C398.914 151.98 400.114 150.04 401.634 147.72C402.994 145.48 404.314 143.78 405.594 142.62C406.914 141.46 408.314 140.64 409.794 140.16C411.314 139.68 412.974 139.38 414.774 139.26L415.194 139.68C410.314 139.64 406.614 138.8 404.094 137.16C401.614 135.52 400.374 133.32 400.374 130.56C400.374 128.72 400.914 127.12 401.994 125.76C403.114 124.36 404.634 123.28 406.554 122.52C408.474 121.72 410.634 121.32 413.034 121.32C413.874 121.32 414.974 121.38 416.334 121.5C417.734 121.62 418.934 121.68 419.934 121.68C421.534 121.68 422.974 121.66 424.254 121.62C425.574 121.54 426.814 121.5 427.974 121.5C428.054 121.5 428.094 121.62 428.094 121.86C428.094 122.1 428.054 122.22 427.974 122.22C426.534 122.22 425.474 122.34 424.794 122.58C424.154 122.78 423.734 123.18 423.534 123.78C423.334 124.34 423.234 125.2 423.234 126.36V154.14C423.234 155.3 423.334 156.18 423.534 156.78C423.734 157.38 424.154 157.78 424.794 157.98C425.474 158.18 426.534 158.28 427.974 158.28ZM407.274 129.06C407.274 131.86 407.974 134.12 409.374 135.84C410.774 137.56 412.894 138.42 415.734 138.42C416.294 138.42 416.894 138.38 417.534 138.3C418.214 138.22 418.754 138.12 419.154 138L416.574 138.78V126.48C416.574 125.32 416.394 124.42 416.034 123.78C415.674 123.14 415.214 122.7 414.654 122.46C414.134 122.22 413.554 122.1 412.914 122.1C409.154 122.1 407.274 124.42 407.274 129.06ZM436.858 151.38L437.458 122.88L439.198 123L438.538 151.38C438.498 153.5 438.918 155.18 439.798 156.42C440.718 157.66 441.998 158.28 443.638 158.28C443.758 158.28 443.818 158.4 443.818 158.64C443.818 158.88 443.758 159 443.638 159C442.758 159 441.858 158.98 440.938 158.94C440.018 158.9 438.978 158.88 437.818 158.88C436.538 158.88 435.378 158.9 434.338 158.94C433.298 158.98 432.338 159 431.458 159C431.338 159 431.278 158.88 431.278 158.64C431.278 158.4 431.338 158.28 431.458 158.28C433.098 158.28 434.398 157.66 435.358 156.42C436.318 155.18 436.818 153.5 436.858 151.38ZM479.818 158.28C479.898 158.28 479.938 158.4 479.938 158.64C479.938 158.88 479.898 159 479.818 159C478.778 159 477.598 158.98 476.278 158.94C474.958 158.9 473.578 158.88 472.138 158.88C470.658 158.88 469.278 158.9 467.998 158.94C466.718 158.98 465.558 159 464.518 159C464.398 159 464.338 158.88 464.338 158.64C464.338 158.4 464.398 158.28 464.518 158.28C466.398 158.28 467.598 158.02 468.118 157.5C468.678 156.98 468.898 155.86 468.778 154.14L467.398 127.5L470.458 122.7L455.158 158.58C455.118 158.74 454.958 158.82 454.678 158.82C454.438 158.82 454.278 158.74 454.198 158.58L437.338 126.48C435.818 123.64 433.998 122.22 431.878 122.22C431.758 122.22 431.698 122.1 431.698 121.86C431.698 121.62 431.758 121.5 431.878 121.5C432.718 121.5 433.598 121.52 434.518 121.56C435.438 121.6 436.218 121.62 436.858 121.62C437.898 121.62 438.798 121.6 439.558 121.56C440.358 121.52 440.978 121.5 441.418 121.5C441.978 121.5 442.398 121.7 442.678 122.1C442.998 122.5 443.498 123.34 444.178 124.62L457.618 149.82L454.618 155.22L468.658 123C468.898 122.44 469.138 122.06 469.378 121.86C469.658 121.62 470.018 121.5 470.458 121.5C470.858 121.5 471.278 121.52 471.718 121.56C472.158 121.6 472.678 121.62 473.278 121.62C474.558 121.62 475.638 121.6 476.518 121.56C477.438 121.52 478.338 121.5 479.218 121.5C479.338 121.5 479.398 121.62 479.398 121.86C479.398 122.1 479.338 122.22 479.218 122.22C477.378 122.22 476.018 122.6 475.138 123.36C474.298 124.12 473.918 125.3 473.998 126.9L475.438 154.14C475.518 155.3 475.658 156.18 475.858 156.78C476.098 157.38 476.518 157.78 477.118 157.98C477.718 158.18 478.618 158.28 479.818 158.28ZM517.306 159.72C514.426 159.72 511.806 159.22 509.446 158.22C507.126 157.18 505.126 155.76 503.446 153.96C501.806 152.16 500.526 150.1 499.606 147.78C498.726 145.42 498.286 142.92 498.286 140.28C498.286 137.04 498.906 134.2 500.146 131.76C501.426 129.32 503.106 127.3 505.186 125.7C507.266 124.06 509.546 122.84 512.026 122.04C514.506 121.24 516.966 120.84 519.406 120.84C522.366 120.84 525.006 121.38 527.326 122.46C529.686 123.5 531.686 124.92 533.326 126.72C534.966 128.52 536.206 130.56 537.046 132.84C537.926 135.12 538.366 137.46 538.366 139.86C538.366 142.66 537.806 145.26 536.686 147.66C535.566 150.06 534.026 152.16 532.066 153.96C530.146 155.76 527.906 157.18 525.346 158.22C522.826 159.22 520.146 159.72 517.306 159.72ZM519.286 158.22C521.526 158.22 523.526 157.58 525.286 156.3C527.046 155.02 528.426 153.14 529.426 150.66C530.466 148.18 530.986 145.16 530.986 141.6C530.986 137.92 530.426 134.64 529.306 131.76C528.186 128.88 526.586 126.62 524.506 124.98C522.426 123.3 519.926 122.46 517.006 122.46C513.366 122.46 510.566 123.84 508.606 126.6C506.646 129.36 505.666 133.18 505.666 138.06C505.666 140.98 506.006 143.68 506.686 146.16C507.366 148.6 508.306 150.74 509.506 152.58C510.746 154.38 512.186 155.78 513.826 156.78C515.506 157.74 517.326 158.22 519.286 158.22ZM552.845 122.88C550.405 122.88 548.325 123.7 546.605 125.34C544.925 126.94 543.585 129.22 542.585 132.18C542.545 132.3 542.425 132.36 542.225 132.36C542.025 132.32 541.925 132.24 541.925 132.12C542.005 131.56 542.085 130.78 542.165 129.78C542.245 128.74 542.325 127.62 542.405 126.42C542.525 125.22 542.605 124.06 542.645 122.94C542.725 121.82 542.765 120.9 542.765 120.18C542.765 119.98 542.865 119.88 543.065 119.88C543.305 119.88 543.425 119.98 543.425 120.18C543.425 120.58 543.625 120.88 544.025 121.08C544.465 121.24 544.945 121.36 545.465 121.44C546.025 121.48 546.485 121.5 546.845 121.5C550.285 121.62 554.305 121.68 558.905 121.68C561.705 121.68 563.945 121.66 565.625 121.62C567.305 121.54 568.925 121.5 570.485 121.5C571.925 121.5 573.005 121.42 573.725 121.26C574.485 121.06 574.965 120.64 575.165 120C575.205 119.84 575.325 119.76 575.525 119.76C575.765 119.76 575.885 119.84 575.885 120C575.805 120.64 575.725 121.54 575.645 122.7C575.605 123.82 575.545 125.02 575.465 126.3C575.425 127.54 575.385 128.7 575.345 129.78C575.305 130.82 575.285 131.6 575.285 132.12C575.285 132.24 575.185 132.3 574.985 132.3C574.785 132.3 574.665 132.24 574.625 132.12C574.025 128.96 572.885 126.64 571.205 125.16C569.565 123.64 567.565 122.88 565.205 122.88C564.405 122.88 563.785 123 563.345 123.24C562.945 123.44 562.665 123.8 562.505 124.32C562.385 124.84 562.325 125.56 562.325 126.48V154.14C562.325 155.3 562.445 156.18 562.685 156.78C562.925 157.38 563.385 157.78 564.065 157.98C564.785 158.18 565.865 158.28 567.305 158.28C567.425 158.28 567.485 158.4 567.485 158.64C567.485 158.88 567.425 159 567.305 159C566.185 159 564.925 158.98 563.525 158.94C562.125 158.9 560.585 158.88 558.905 158.88C557.305 158.88 555.805 158.9 554.405 158.94C553.005 158.98 551.725 159 550.565 159C550.445 159 550.385 158.88 550.385 158.64C550.385 158.4 550.445 158.28 550.565 158.28C551.965 158.28 553.025 158.18 553.745 157.98C554.465 157.78 554.945 157.38 555.185 156.78C555.465 156.18 555.605 155.3 555.605 154.14V126.36C555.605 125.48 555.525 124.8 555.365 124.32C555.245 123.8 554.985 123.44 554.585 123.24C554.185 123 553.605 122.88 552.845 122.88ZM614.943 154.86C610.743 154.86 607.163 154.2 604.203 152.88C601.243 151.52 598.983 149.72 597.423 147.48C595.863 145.2 595.083 142.68 595.083 139.92C595.083 137.36 595.683 135.14 596.883 133.26C598.083 131.34 599.703 129.76 601.743 128.52C603.823 127.24 606.143 126.28 608.703 125.64C611.263 125 613.883 124.68 616.563 124.68C620.963 124.68 624.643 125.4 627.603 126.84C630.563 128.24 632.783 130.08 634.263 132.36C635.783 134.64 636.543 137.04 636.543 139.56C636.543 142.4 635.623 144.98 633.783 147.3C631.943 149.62 629.403 151.46 626.163 152.82C622.923 154.18 619.183 154.86 614.943 154.86ZM615.783 154.02C618.703 154.02 621.163 153.48 623.163 152.4C625.163 151.32 626.663 149.74 627.663 147.66C628.703 145.54 629.223 142.94 629.223 139.86C629.223 136.7 628.703 134.06 627.663 131.94C626.663 129.78 625.163 128.16 623.163 127.08C621.203 125.96 618.763 125.4 615.843 125.4C612.923 125.4 610.463 125.94 608.463 127.02C606.503 128.06 605.003 129.62 603.963 131.7C602.963 133.78 602.463 136.36 602.463 139.44C602.463 142.6 602.963 145.28 603.963 147.48C605.003 149.64 606.503 151.28 608.463 152.4C610.463 153.48 612.903 154.02 615.783 154.02ZM606.603 161.1C606.483 161.1 606.423 160.98 606.423 160.74C606.423 160.5 606.483 160.38 606.603 160.38C608.243 160.38 609.463 160.26 610.263 160.02C611.103 159.78 611.663 159.4 611.943 158.88C612.223 158.32 612.363 157.62 612.363 156.78V123.24C612.363 122.16 612.223 121.34 611.943 120.78C611.663 120.22 611.103 119.84 610.263 119.64C609.463 119.44 608.243 119.34 606.603 119.34C606.483 119.34 606.423 119.22 606.423 118.98C606.423 118.74 606.483 118.62 606.603 118.62C607.843 118.62 609.223 118.66 610.743 118.74C612.303 118.78 613.943 118.8 615.663 118.8C617.503 118.8 619.183 118.78 620.703 118.74C622.223 118.66 623.583 118.62 624.783 118.62C624.863 118.62 624.903 118.74 624.903 118.98C624.903 119.22 624.863 119.34 624.783 119.34C623.183 119.34 621.963 119.46 621.123 119.7C620.323 119.9 619.783 120.3 619.503 120.9C619.223 121.46 619.083 122.28 619.083 123.36V156.78C619.083 157.62 619.203 158.32 619.443 158.88C619.723 159.4 620.263 159.78 621.063 160.02C621.903 160.26 623.143 160.38 624.783 160.38C624.863 160.38 624.903 160.5 624.903 160.74C624.903 160.98 624.863 161.1 624.783 161.1C623.543 161.1 622.163 161.08 620.643 161.04C619.163 161 617.503 160.98 615.663 160.98C613.943 160.98 612.303 161 610.743 161.04C609.223 161.08 607.843 161.1 606.603 161.1ZM668.466 159H641.946C641.826 159 641.766 158.88 641.766 158.64C641.766 158.4 641.826 158.28 641.946 158.28C643.186 158.28 644.106 158.18 644.706 157.98C645.306 157.78 645.706 157.38 645.906 156.78C646.106 156.18 646.206 155.3 646.206 154.14V126.36C646.206 125.2 646.106 124.34 645.906 123.78C645.706 123.18 645.306 122.78 644.706 122.58C644.106 122.34 643.186 122.22 641.946 122.22C641.826 122.22 641.766 122.1 641.766 121.86C641.766 121.62 641.826 121.5 641.946 121.5H667.386C667.786 121.5 667.986 121.68 667.986 122.04L668.106 130.02C668.106 130.1 668.006 130.16 667.806 130.2C667.606 130.24 667.466 130.2 667.386 130.08C666.746 127.72 665.666 126 664.146 124.92C662.626 123.8 660.626 123.24 658.146 123.24H656.346C655.546 123.24 654.886 123.36 654.366 123.6C653.846 123.8 653.466 124.14 653.226 124.62C652.986 125.1 652.866 125.7 652.866 126.42V153.9C652.866 154.66 652.966 155.3 653.166 155.82C653.366 156.34 653.666 156.72 654.066 156.96C654.466 157.2 654.986 157.32 655.626 157.32H657.606C660.726 157.32 663.226 156.68 665.106 155.4C666.986 154.12 668.366 152.14 669.246 149.46C669.286 149.34 669.406 149.32 669.606 149.4C669.846 149.44 669.966 149.5 669.966 149.58C669.806 150.74 669.666 152.12 669.546 153.72C669.426 155.28 669.366 156.74 669.366 158.1C669.366 158.7 669.066 159 668.466 159ZM665.106 145.62C665.106 143.98 664.486 142.7 663.246 141.78C662.006 140.82 660.186 140.34 657.786 140.34H649.686V138.66H657.846C660.206 138.66 661.986 138.26 663.186 137.46C664.426 136.62 665.046 135.5 665.046 134.1C665.046 133.98 665.146 133.92 665.346 133.92C665.586 133.92 665.706 133.98 665.706 134.1C665.706 135.42 665.686 136.46 665.646 137.22C665.646 137.94 665.646 138.7 665.646 139.5C665.646 140.5 665.666 141.48 665.706 142.44C665.786 143.4 665.826 144.46 665.826 145.62C665.826 145.7 665.706 145.74 665.466 145.74C665.226 145.74 665.106 145.7 665.106 145.62ZM682.612 154.8L681.352 153.66L707.752 125.46L708.952 126.6L682.612 154.8ZM674.392 159C674.312 159 674.272 158.88 674.272 158.64C674.272 158.4 674.312 158.28 674.392 158.28C675.752 158.28 676.752 158.18 677.392 157.98C678.072 157.78 678.532 157.38 678.772 156.78C679.012 156.18 679.132 155.3 679.132 154.14V126.36C679.132 125.2 679.012 124.34 678.772 123.78C678.572 123.18 678.132 122.78 677.452 122.58C676.812 122.34 675.832 122.22 674.512 122.22C674.392 122.22 674.332 122.1 674.332 121.86C674.332 121.62 674.392 121.5 674.512 121.5C675.552 121.5 676.732 121.54 678.052 121.62C679.372 121.66 680.752 121.68 682.192 121.68C684.032 121.68 685.632 121.66 686.992 121.62C688.392 121.54 689.652 121.5 690.772 121.5C690.852 121.5 690.892 121.62 690.892 121.86C690.892 122.1 690.852 122.22 690.772 122.22C689.372 122.22 688.312 122.34 687.592 122.58C686.872 122.82 686.392 123.24 686.152 123.84C685.912 124.44 685.792 125.32 685.792 126.48V154.14C685.792 155.3 685.912 156.18 686.152 156.78C686.392 157.38 686.872 157.78 687.592 157.98C688.312 158.18 689.372 158.28 690.772 158.28C690.852 158.28 690.892 158.4 690.892 158.64C690.892 158.88 690.852 159 690.772 159C689.612 159 688.352 158.98 686.992 158.94C685.632 158.9 684.032 158.88 682.192 158.88C680.752 158.88 679.352 158.9 677.992 158.94C676.632 158.98 675.432 159 674.392 159ZM699.472 159C699.352 159 699.292 158.88 699.292 158.64C699.292 158.4 699.352 158.28 699.472 158.28C700.912 158.28 701.992 158.18 702.712 157.98C703.432 157.78 703.892 157.38 704.092 156.78C704.332 156.18 704.452 155.3 704.452 154.14V126.48C704.452 125.32 704.332 124.44 704.092 123.84C703.892 123.24 703.432 122.82 702.712 122.58C701.992 122.34 700.912 122.22 699.472 122.22C699.352 122.22 699.292 122.1 699.292 121.86C699.292 121.62 699.352 121.5 699.472 121.5C700.512 121.5 701.692 121.54 703.012 121.62C704.372 121.66 705.972 121.68 707.812 121.68C709.252 121.68 710.672 121.66 712.072 121.62C713.512 121.54 714.752 121.5 715.792 121.5C715.912 121.5 715.972 121.62 715.972 121.86C715.972 122.1 715.912 122.22 715.792 122.22C714.472 122.22 713.472 122.34 712.792 122.58C712.152 122.78 711.712 123.18 711.472 123.78C711.232 124.34 711.112 125.2 711.112 126.36V154.14C711.112 155.3 711.232 156.18 711.472 156.78C711.712 157.38 712.152 157.78 712.792 157.98C713.472 158.18 714.472 158.28 715.792 158.28C715.912 158.28 715.972 158.4 715.972 158.64C715.972 158.88 715.912 159 715.792 159C714.752 159 713.512 158.98 712.072 158.94C710.672 158.9 709.252 158.88 707.812 158.88C705.972 158.88 704.372 158.9 703.012 158.94C701.692 158.98 700.512 159 699.472 159ZM695.152 117.9C696.312 117.9 697.112 117.52 697.552 116.76C697.992 115.96 698.352 115.12 698.632 114.24C698.912 113.4 699.232 112.64 699.592 111.96C699.992 111.28 700.652 110.94 701.572 110.94C702.412 110.94 703.052 111.16 703.492 111.6C703.932 112.04 704.152 112.62 704.152 113.34C704.152 114.34 703.732 115.28 702.892 116.16C702.052 117 700.952 117.68 699.592 118.2C698.232 118.68 696.772 118.92 695.212 118.92C693.692 118.92 692.252 118.66 690.892 118.14C689.532 117.62 688.432 116.94 687.592 116.1C686.752 115.26 686.332 114.34 686.332 113.34C686.332 112.62 686.552 112.04 686.992 111.6C687.432 111.16 688.092 110.94 688.972 110.94C690.012 110.94 690.692 111.3 691.012 112.02C691.372 112.7 691.672 113.46 691.912 114.3C692.192 115.18 692.512 116 692.872 116.76C693.272 117.52 694.032 117.9 695.152 117.9Z" fill="#FFF9EE"/>
</svg>
