<svg width="991" height="165" viewBox="0 0 991 165" fill="none" xmlns="http://www.w3.org/2000/svg">
<g clip-path="url(#clip0_428_388)">
<path d="M125.317 90.8453L107.994 104.649L118.009 109.075C118.55 117.561 115.549 132.646 102.981 142.541C93.2598 150.194 78.1884 156.019 54.6746 155.358C53.592 154.817 53.0507 153.734 53.0507 152.922C52.78 151.839 54.025 150.053 55.7573 149.403C57.4895 148.754 72.7185 138.397 79.8459 133.435L107.182 111.145L105.829 105.732C105.288 103.662 103.844 92.0182 103.934 85.1615C119.182 66.2154 150.975 29.081 156.172 32.1124C161.152 35.3603 137.677 72.621 125.317 90.8453Z" fill="#FFF9EE"/>
<path d="M105.829 105.732L107.994 104.649M105.829 105.732C105.288 103.662 103.844 92.0182 103.934 85.1615C119.182 66.2154 150.975 29.081 156.172 32.1124C161.152 35.3603 137.677 72.621 125.317 90.8453L107.994 104.649M105.829 105.732L107.182 111.145L79.8459 133.435M107.994 104.649L118.009 109.075C118.55 117.561 115.549 132.646 102.981 142.541M79.8459 133.435C72.7185 138.397 57.4895 148.754 55.7573 149.403C54.025 150.053 52.78 151.839 53.0507 152.922C53.0507 153.734 53.592 154.817 54.6746 155.358C78.1884 156.019 93.2598 150.194 102.981 142.541M79.8459 133.435C81.9166 137.855 89.6592 146.655 102.981 142.541" stroke="black" stroke-width="0.541318"/>
<path d="M102.615 18.2134C98.9341 49.3933 104.149 93.4566 107.216 111.591C86.7364 129.003 42.4746 162.745 29.2666 158.415C28.7254 158.144 0.0355606 147.6 17.0871 115.115C-18.0256 83.3745 60.0809 7.81747 78.2195 6.40016C78.9984 6.33931 79.7598 6.34979 80.5346 6.24944C98.2276 3.95772 102.615 15.6767 102.615 18.2134Z" fill="#F7E3B8"/>
<path d="M107.216 111.591C104.149 93.4566 98.9341 49.3933 102.615 18.2134C102.615 15.6767 98.2276 3.95772 80.5346 6.24944C79.7598 6.34979 78.9984 6.33931 78.2195 6.40016C60.0809 7.81747 -18.0256 83.3745 17.0871 115.115M107.216 111.591C91.5179 122.688 33.0558 124.041 29.2666 122.688C24.2257 120.481 20.2068 117.935 17.0871 115.115M107.216 111.591C86.7364 129.003 42.4746 162.745 29.2666 158.415C28.7254 158.144 0.0355609 147.6 17.0871 115.115" stroke="black" stroke-width="0.541318"/>
<circle cx="118.279" cy="99.8729" r="10.8264" fill="#FFF9EE" stroke="black" stroke-width="0.541318"/>
<path d="M286.086 79.303L266.057 91.613L275.567 95.8164C276.109 104.303 273.108 119.388 260.539 129.282C250.818 136.935 235.747 142.76 212.233 142.099C211.151 141.558 210.609 140.475 210.609 139.663C210.339 138.581 211.584 136.794 213.316 136.145C215.048 135.495 230.277 125.138 237.404 120.176L262.809 95.8164L259.795 90.6232C257.126 86.8813 258.75 88.5053 264.433 85.528C287.71 65.77 321.272 30.855 326.956 30.855C331.936 34.1029 303.138 64.958 286.086 79.303Z" fill="#FFF9EE"/>
<path d="M259.795 90.6232L266.057 91.613M259.795 90.6232C257.126 86.8813 258.75 88.5053 264.433 85.5281C287.71 65.77 321.272 30.855 326.956 30.855C331.936 34.1029 303.138 64.958 286.086 79.303L266.057 91.613M259.795 90.6232L262.809 95.8164L237.404 120.176M266.057 91.613L275.567 95.8164C276.109 104.303 273.108 119.388 260.539 129.282M237.404 120.176C230.277 125.138 215.048 135.495 213.316 136.145C211.584 136.794 210.339 138.581 210.609 139.663C210.609 140.475 211.151 141.558 212.233 142.099C235.747 142.76 250.818 136.935 260.539 129.282M237.404 120.176C239.475 124.597 247.218 133.396 260.539 129.282" stroke="black" stroke-width="0.541318"/>
<path d="M269.075 28.3121C263.927 57.7297 254.517 81.7465 265.861 95.6005C248.234 114.738 203.067 146.134 188.181 146.134C187.64 145.863 170.046 149.382 178.707 127.188C137.568 106.888 217.954 20.5485 253.14 17.8415C271.404 14.93 269.216 25.0721 269.111 27.9443C269.106 28.0689 269.096 28.1894 269.075 28.3121Z" fill="#F7E3B8"/>
<path d="M265.861 95.6005C254.517 81.7465 263.927 57.7297 269.075 28.3121C269.096 28.1894 269.106 28.0689 269.111 27.9443C269.216 25.0721 271.404 14.93 253.14 17.8415C217.954 20.5485 137.568 106.888 178.707 127.188M265.861 95.6005C253.105 109.449 199.244 129.895 193.56 129.895C188.417 129.083 181.827 130.008 178.707 127.188M265.861 95.6005C248.234 114.738 203.067 146.134 188.181 146.134C187.64 145.863 170.046 149.382 178.707 127.188" stroke="black" stroke-width="0.541318"/>
<circle cx="276.343" cy="88.5052" r="10.8264" fill="#FFF9EE" stroke="black" stroke-width="0.541318"/>
<path d="M946.492 79.3035L926.464 91.6135L935.974 95.8169C936.515 104.303 933.514 119.388 920.946 129.283C911.225 136.936 896.153 142.761 872.639 142.1C871.557 141.558 871.016 140.476 871.016 139.664C870.745 138.581 871.99 136.795 873.722 136.145C875.454 135.496 890.683 125.138 897.811 120.176L923.216 95.8169L920.201 90.6237C917.532 86.8818 919.156 88.5058 924.84 85.5285C948.116 65.7705 981.678 30.8555 987.362 30.8555C992.342 34.1034 963.544 64.9585 946.492 79.3035Z" fill="#FFF9EE"/>
<path d="M920.201 90.6237L926.464 91.6135M920.201 90.6237C917.532 86.8818 919.156 88.5058 924.84 85.5285C948.116 65.7704 981.678 30.8555 987.362 30.8555C992.342 34.1034 963.544 64.9585 946.492 79.3035L926.464 91.6135M920.201 90.6237L923.216 95.8169L897.811 120.176M926.464 91.6135L935.974 95.8169C936.515 104.303 933.514 119.388 920.946 129.283M897.811 120.176C890.683 125.138 875.454 135.496 873.722 136.145C871.99 136.795 870.745 138.581 871.016 139.664C871.016 140.476 871.557 141.558 872.639 142.1C896.153 142.761 911.225 136.936 920.946 129.283M897.811 120.176C899.881 124.597 907.624 133.397 920.946 129.283" stroke="black" stroke-width="0.541318"/>
<path d="M929.481 28.3126C924.333 57.7301 914.923 81.747 926.267 95.601C908.64 114.738 863.473 146.135 848.588 146.135C848.046 145.864 830.452 149.382 839.114 127.188C797.974 106.889 878.36 20.549 913.546 17.8419C931.811 14.9305 929.622 25.0726 929.517 27.9448C929.513 28.0694 929.503 28.1899 929.481 28.3126Z" fill="#F7E3B8"/>
<path d="M926.267 95.601C914.923 81.747 924.333 57.7301 929.481 28.3126C929.503 28.1899 929.513 28.0694 929.517 27.9448C929.622 25.0726 931.811 14.9305 913.546 17.8419C878.36 20.549 797.974 106.889 839.114 127.188M926.267 95.601C913.511 109.45 859.65 129.895 853.966 129.895C848.824 129.083 842.233 130.009 839.114 127.188M926.267 95.601C908.64 114.738 863.473 146.135 848.588 146.135C848.046 145.864 830.452 149.382 839.114 127.188" stroke="black" stroke-width="0.541318"/>
<circle cx="936.749" cy="88.5052" r="10.8264" fill="#FFF9EE" stroke="black" stroke-width="0.541318"/>
<g clip-path="url(#clip1_428_388)">
<path d="M466.345 136.412L436.033 40.5991L433.758 44.1154C433.296 44.8287 432.673 45.4233 431.939 45.8512L429.806 47.0949C423.851 75.1532 417.789 133.11 441.174 140.472C464.558 147.834 467.698 140.833 466.345 136.412Z" fill="#F7E3B8" stroke="black" stroke-width="0.541318"/>
<path d="M439.801 158.954C435.295 168.128 408.555 169.672 384.535 132.108C362.521 126.965 346.643 105.854 373.708 69.044L374.322 66.0406L375.873 63.3602C382.212 56.8795 391.182 47.8967 399.962 39.44C413.55 26.3525 426.687 14.5253 428.923 15.1829C432.604 16.2656 437.132 19.7841 438.937 21.4081C439.175 28.6256 437.74 43.8186 430.092 46.85C432.182 87.7262 435.269 142.328 439.706 155.614C440.075 156.721 440.316 157.907 439.801 158.954Z" fill="#FFF9EE"/>
<path d="M384.535 132.108C408.555 169.672 435.295 168.128 439.801 158.954C440.316 157.907 440.075 156.721 439.706 155.614C435.269 142.328 432.182 87.7262 430.092 46.85M384.535 132.108C362.521 126.965 346.643 105.854 373.708 69.044M384.535 132.108C383.19 124.576 380.241 82.0304 428.016 22.5318M373.708 69.044C415.488 28.3275 428.318 22.1572 428.016 22.5318M373.708 69.044L374.322 66.0406L375.873 63.3602C382.212 56.8795 391.182 47.8967 399.962 39.44M428.016 22.5318C428.316 22.1579 428.619 21.7833 428.923 21.4081C429.216 28.703 429.609 37.4098 430.092 46.85M430.092 46.85C437.74 43.8186 439.175 28.6256 438.937 21.4081C437.132 19.7841 432.604 16.2656 428.923 15.1829C426.687 14.5253 413.55 26.3525 399.962 39.44M401.316 43.2566C400.053 42.1961 399.096 41.0905 399.962 39.44" stroke="black" stroke-width="0.541318"/>
<circle cx="437.656" cy="11.097" r="10.8264" fill="#FFF9EE" stroke="black" stroke-width="0.541318"/>
</g>
<g clip-path="url(#clip2_428_388)">
<path d="M796.548 136.412L766.236 40.5991L763.961 44.1154C763.499 44.8287 762.876 45.4233 762.142 45.8512L760.009 47.0949C754.054 75.1532 747.992 133.11 771.377 140.472C794.762 147.834 797.901 140.833 796.548 136.412Z" fill="#F7E3B8" stroke="black" stroke-width="0.541318"/>
<path d="M770.004 158.954C765.498 168.128 738.759 169.672 714.738 132.108C692.724 126.965 676.846 105.854 703.911 69.044L704.525 66.0406L706.076 63.3602C712.416 56.8795 721.385 47.8967 730.165 39.44C743.754 26.3525 756.89 14.5253 759.126 15.1829C762.807 16.2656 767.336 19.7841 769.14 21.4081C769.378 28.6256 767.943 43.8186 760.295 46.85C762.385 87.7262 765.472 142.328 769.909 155.614C770.278 156.721 770.519 157.907 770.004 158.954Z" fill="#FFF9EE"/>
<path d="M714.738 132.108C738.759 169.672 765.498 168.128 770.004 158.954C770.519 157.907 770.278 156.721 769.909 155.614C765.472 142.328 762.385 87.7262 760.295 46.85M714.738 132.108C692.724 126.965 676.846 105.854 703.911 69.044M714.738 132.108C713.393 124.576 710.444 82.0304 758.219 22.5318M703.911 69.044C745.691 28.3275 758.521 22.1572 758.219 22.5318M703.911 69.044L704.525 66.0406L706.076 63.3602C712.416 56.8795 721.385 47.8967 730.165 39.44M758.219 22.5318C758.519 22.1579 758.822 21.7833 759.126 21.4081C759.419 28.703 759.813 37.4098 760.295 46.85M760.295 46.85C767.943 43.8186 769.378 28.6256 769.14 21.4081C767.336 19.7841 762.807 16.2656 759.126 15.1829C756.89 14.5253 743.754 26.3525 730.165 39.44M731.519 43.2566C730.256 42.1961 729.299 41.0905 730.165 39.44" stroke="black" stroke-width="0.541318"/>
<circle cx="767.859" cy="11.097" r="10.8264" fill="#FFF9EE" stroke="black" stroke-width="0.541318"/>
</g>
<path d="M629.213 132.257C627.204 148.704 602.418 142.452 592.404 136.047L589.968 134.152C587.803 112.048 585.313 69.4289 589.968 67.0286C596.03 63.9027 599.549 52.2649 601.877 55.1197C604.785 58.6855 631.216 115.87 629.213 132.257Z" fill="#F7E3B8" stroke="black" stroke-width="0.541318"/>
<path d="M604.879 37.8265C602.714 63.5391 590.138 71.0793 590.138 65.4995C588.136 92.1291 587.049 124.111 591.076 136.346C596.272 152.134 579.733 150.999 568.784 147.963C567.042 147.481 565.432 146.628 564.061 145.451C557.461 139.782 548.081 129.312 546.622 123.962C512.706 123.962 528.57 96.1237 540.283 81.8909C540.276 81.6697 540.315 80.7287 540.192 77.884C539.975 72.9039 576.009 44.5929 594.053 31.06C598.383 24.7446 606.611 17.2564 604.879 37.8265Z" fill="#FFF9EE"/>
<path d="M592.699 37.8265C585.676 37.4231 555.439 65.975 541.274 81.1319L540.462 81.6732M592.699 37.8265C591.789 46.4876 590.138 59.8157 590.138 65.4995C590.138 71.0793 602.714 63.5391 604.879 37.8265C606.611 17.2564 598.383 24.7446 594.053 31.06C576.009 44.5929 539.975 72.9039 540.192 77.884C540.408 82.8641 540.126 82.0097 540.462 81.6732M592.699 37.8265C526.131 89.5223 549.599 123.962 546.622 123.962M592.699 37.8265C589.812 63.5391 585.446 119.241 591.076 136.346C596.272 152.134 579.733 150.999 568.784 147.963C567.042 147.481 565.432 146.628 564.061 145.451C557.461 139.782 548.081 129.312 546.622 123.962M540.462 81.6732C528.734 95.8377 512.532 123.962 546.622 123.962" stroke="black" stroke-width="0.541318"/>
<circle cx="603.3" cy="25.7127" r="10.8264" fill="#FFF9EE" stroke="black" stroke-width="0.541318"/>
</g>
<defs>
<clipPath id="clip0_428_388">
<rect width="990.611" height="165" fill="white"/>
</clipPath>
<clipPath id="clip1_428_388">
<rect width="165" height="165" fill="white" transform="translate(330.203 -0.541504)"/>
</clipPath>
<clipPath id="clip2_428_388">
<rect width="165" height="165" fill="white" transform="translate(660.406 -0.541504)"/>
</clipPath>
</defs>
</svg>
