<svg width="960" height="160" viewBox="0 0 960 160" fill="none" xmlns="http://www.w3.org/2000/svg">
<g clip-path="url(#clip0_414_387)">
<path d="M838.557 88.0387L855.344 101.416L845.639 105.705C845.115 113.929 848.023 128.548 860.203 138.137C869.623 145.554 884.229 151.198 907.016 150.558C908.066 150.033 908.59 148.984 908.59 148.197C908.852 147.148 907.646 145.417 905.967 144.787C904.288 144.158 889.53 134.121 882.623 129.312L856.131 107.711L857.443 102.465C857.967 100.459 859.366 89.1753 859.279 82.5305C844.503 64.1698 813.692 28.1829 808.656 31.1206C803.829 34.2682 826.579 70.3775 838.557 88.0387Z" fill="#FFF9EE"/>
<path d="M857.443 102.465L855.344 101.416M857.443 102.465C857.967 100.459 859.366 89.1753 859.279 82.5305C844.503 64.1698 813.692 28.1829 808.656 31.1206C803.829 34.2682 826.579 70.3775 838.557 88.0387L855.344 101.416M857.443 102.465L856.131 107.711L882.623 129.312M855.344 101.416L845.639 105.705C845.115 113.929 848.023 128.548 860.203 138.137M882.623 129.312C889.53 134.121 904.288 144.158 905.967 144.787C907.646 145.417 908.852 147.148 908.59 148.197C908.59 148.984 908.066 150.033 907.016 150.558C884.229 151.198 869.623 145.554 860.203 138.137M882.623 129.312C880.616 133.596 873.113 142.124 860.203 138.137" stroke="black" stroke-width="0.52459"/>
<path d="M860.557 17.651C864.124 47.8674 859.071 90.569 856.098 108.143C875.945 125.017 918.839 157.717 931.639 153.52C932.163 153.258 959.967 143.04 943.442 111.558C977.47 80.7986 901.777 7.5763 884.199 6.20279C883.444 6.14381 882.706 6.15397 881.955 6.05672C864.809 3.83581 860.557 15.1926 860.557 17.651Z" fill="#F7E3B8"/>
<path d="M856.098 108.143C859.071 90.569 864.124 47.8674 860.557 17.651C860.557 15.1926 864.809 3.83581 881.955 6.05672C882.706 6.15397 883.444 6.14381 884.199 6.20279C901.777 7.5763 977.47 80.7986 943.442 111.558M856.098 108.143C871.311 118.897 927.967 120.209 931.639 118.897C936.524 116.758 940.419 114.291 943.442 111.558M856.098 108.143C875.945 125.017 918.839 157.717 931.639 153.52C932.163 153.258 959.967 143.04 943.442 111.558" stroke="black" stroke-width="0.52459"/>
<circle cx="10.7541" cy="10.7541" r="10.4918" transform="matrix(-1 0 0 1 856.131 86.0332)" fill="#FFF9EE" stroke="black" stroke-width="0.52459"/>
<path d="M682.755 76.8532L702.165 88.7829L692.948 92.8564C692.424 101.08 695.332 115.699 707.512 125.288C716.933 132.705 731.538 138.349 754.325 137.709C755.375 137.184 755.899 136.135 755.899 135.348C756.161 134.299 754.955 132.568 753.276 131.938C751.598 131.309 736.839 121.272 729.932 116.463L705.312 92.8564L708.233 87.8237C710.82 84.1974 709.247 85.7712 703.738 82.8859C681.181 63.7384 648.656 29.9023 643.148 29.9023C638.322 33.0499 666.23 62.9515 682.755 76.8532Z" fill="#FFF9EE"/>
<path d="M708.233 87.8237L702.165 88.7829M708.233 87.8237C710.82 84.1974 709.247 85.7712 703.738 82.8859C681.181 63.7384 648.656 29.9023 643.148 29.9023C638.322 33.0499 666.23 62.9515 682.755 76.8532L702.165 88.7829M708.233 87.8237L705.312 92.8564L729.932 116.463M702.165 88.7829L692.948 92.8564C692.424 101.08 695.332 115.699 707.512 125.288M729.932 116.463C736.839 121.272 751.598 131.309 753.276 131.938C754.955 132.568 756.161 134.299 755.899 135.348C755.899 136.135 755.375 137.184 754.325 137.709C731.538 138.349 716.933 132.705 707.512 125.288M729.932 116.463C727.925 120.747 720.422 129.275 707.512 125.288" stroke="black" stroke-width="0.52459"/>
<path d="M699.241 27.4379C704.23 55.9463 713.349 79.221 702.356 92.6469C719.438 111.193 763.21 141.619 777.635 141.619C778.159 141.357 795.21 144.766 786.816 123.258C826.684 103.586 748.782 19.9142 714.684 17.2907C696.983 14.4693 699.104 24.298 699.206 27.0814C699.21 27.2021 699.22 27.3189 699.241 27.4379Z" fill="#F7E3B8"/>
<path d="M702.356 92.6469C713.349 79.221 704.23 55.9463 699.241 27.4379C699.22 27.3189 699.21 27.2021 699.206 27.0814C699.104 24.298 696.983 14.4693 714.684 17.2907C748.782 19.9142 826.684 103.586 786.816 123.258M702.356 92.6469C714.718 106.068 766.914 125.881 772.422 125.881C777.406 125.094 783.793 125.991 786.816 123.258M702.356 92.6469C719.438 111.193 763.21 141.619 777.635 141.619C778.159 141.357 795.21 144.766 786.816 123.258" stroke="black" stroke-width="0.52459"/>
<circle cx="10.7541" cy="10.7541" r="10.4918" transform="matrix(-1 0 0 1 702.951 75.0166)" fill="#FFF9EE" stroke="black" stroke-width="0.52459"/>
<path d="M42.7547 76.8532L62.1646 88.7829L52.9484 92.8564C52.4238 101.08 55.332 115.699 67.512 125.288C76.9326 132.705 91.5383 138.349 114.325 137.709C115.375 137.184 115.899 136.135 115.899 135.348C116.161 134.299 114.955 132.568 113.276 131.938C111.598 131.309 96.8391 121.272 89.932 116.463L65.3121 92.8564L68.2332 87.8237C70.8203 84.1974 69.2465 85.7712 63.7383 82.8859C41.181 63.7384 8.65638 29.9023 3.14818 29.9023C-1.67805 33.0499 26.2301 62.9515 42.7547 76.8532Z" fill="#FFF9EE"/>
<path d="M68.2332 87.8237L62.1646 88.7829M68.2332 87.8237C70.8203 84.1974 69.2465 85.7712 63.7383 82.8859C41.181 63.7384 8.65638 29.9023 3.14818 29.9023C-1.67805 33.0499 26.2301 62.9515 42.7547 76.8532L62.1646 88.7829M68.2332 87.8237L65.3121 92.8564L89.932 116.463M62.1646 88.7829L52.9484 92.8564C52.4238 101.08 55.332 115.699 67.512 125.288M89.932 116.463C96.8391 121.272 111.598 131.309 113.276 131.938C114.955 132.568 116.161 134.299 115.899 135.348C115.899 136.135 115.375 137.184 114.325 137.709C91.5383 138.349 76.9326 132.705 67.512 125.288M89.932 116.463C87.9252 120.747 80.4219 129.275 67.512 125.288" stroke="black" stroke-width="0.52459"/>
<path d="M59.241 27.4379C64.2302 55.9463 73.3491 79.221 62.3557 92.6469C79.4379 111.193 123.21 141.619 137.635 141.619C138.159 141.357 155.21 144.766 146.816 123.258C186.684 103.586 108.782 19.9142 74.6838 17.2907C56.9834 14.4693 59.1042 24.298 59.206 27.0814C59.2105 27.2021 59.2201 27.3189 59.241 27.4379Z" fill="#F7E3B8"/>
<path d="M62.3557 92.6469C73.349 79.221 64.2302 55.9463 59.241 27.4379C59.2201 27.3189 59.2105 27.2021 59.206 27.0814C59.1042 24.298 56.9834 14.4693 74.6838 17.2907C108.782 19.9142 186.684 103.586 146.816 123.258M62.3557 92.6469C74.7175 106.068 126.914 125.881 132.422 125.881C137.406 125.094 143.793 125.991 146.816 123.258M62.3557 92.6469C79.4379 111.193 123.21 141.619 137.635 141.619C138.159 141.357 155.21 144.766 146.816 123.258" stroke="black" stroke-width="0.52459"/>
<circle cx="10.7541" cy="10.7541" r="10.4918" transform="matrix(-1 0 0 1 62.9512 75.0166)" fill="#FFF9EE" stroke="black" stroke-width="0.52459"/>
<g clip-path="url(#clip1_414_387)">
<path d="M508.067 132.197L537.443 39.3447L539.647 42.7524C540.095 43.4436 540.698 44.0198 541.41 44.4345L543.477 45.6398C549.248 72.8311 555.123 128.997 532.461 136.132C509.798 143.266 506.756 136.481 508.067 132.197Z" fill="#F7E3B8" stroke="black" stroke-width="0.52459"/>
<path d="M533.79 154.043C538.157 162.933 564.07 164.429 587.349 128.025C608.682 123.042 624.069 102.583 597.841 66.9106L597.246 64L595.743 61.4024C589.599 55.122 580.907 46.4167 572.398 38.2214C559.23 25.5383 546.499 14.0765 544.332 14.7139C540.765 15.763 536.376 19.1729 534.628 20.7466C534.397 27.7412 535.787 42.4647 543.199 45.4024C541.174 85.0154 538.182 137.93 533.883 150.805C533.524 151.878 533.291 153.028 533.79 154.043Z" fill="#FFF9EE"/>
<path d="M587.349 128.025C564.07 164.429 538.157 162.933 533.79 154.043C533.291 153.028 533.524 151.878 533.883 150.805C538.182 137.93 541.174 85.0154 543.199 45.4024M587.349 128.025C608.682 123.042 624.069 102.583 597.841 66.9106M587.349 128.025C588.652 120.727 591.51 79.4957 545.211 21.8356M597.841 66.9106C557.352 27.4523 544.918 21.4726 545.211 21.8356M597.841 66.9106L597.246 63.9999L595.743 61.4024C589.599 55.122 580.907 46.4167 572.398 38.2214M545.211 21.8356C544.92 21.4733 544.627 21.1103 544.332 20.7466C544.048 27.8162 543.667 36.2539 543.199 45.4024M543.199 45.4024C535.787 42.4647 534.397 27.7412 534.628 20.7466C536.376 19.1729 540.765 15.763 544.332 14.7139C546.499 14.0765 559.23 25.5383 572.398 38.2214M571.086 41.92C572.31 40.8923 573.238 39.8209 572.398 38.2214" stroke="black" stroke-width="0.52459"/>
<circle cx="10.7541" cy="10.7541" r="10.4918" transform="matrix(-1 0 0 1 546.624 0)" fill="#FFF9EE" stroke="black" stroke-width="0.52459"/>
</g>
<g clip-path="url(#clip2_414_387)">
<path d="M188.067 132.197L217.443 39.3447L219.647 42.7524C220.095 43.4436 220.698 44.0198 221.41 44.4345L223.477 45.6398C229.248 72.8311 235.123 128.997 212.461 136.132C189.798 143.266 186.756 136.481 188.067 132.197Z" fill="#F7E3B8" stroke="black" stroke-width="0.52459"/>
<path d="M213.79 154.043C218.157 162.933 244.07 164.429 267.349 128.025C288.682 123.042 304.069 102.583 277.841 66.9106L277.246 64L275.743 61.4024C269.599 55.122 260.907 46.4167 252.398 38.2214C239.23 25.5383 226.499 14.0765 224.332 14.7139C220.765 15.763 216.376 19.1729 214.628 20.7466C214.397 27.7412 215.787 42.4647 223.199 45.4024C221.174 85.0154 218.182 137.93 213.883 150.805C213.524 151.878 213.291 153.028 213.79 154.043Z" fill="#FFF9EE"/>
<path d="M267.349 128.025C244.07 164.429 218.157 162.933 213.79 154.043C213.291 153.028 213.524 151.878 213.883 150.805C218.182 137.93 221.174 85.0154 223.199 45.4024M267.349 128.025C288.682 123.042 304.069 102.583 277.841 66.9106M267.349 128.025C268.652 120.727 271.51 79.4957 225.211 21.8356M277.841 66.9106C237.352 27.4523 224.918 21.4726 225.211 21.8356M277.841 66.9106L277.246 63.9999L275.743 61.4024C269.599 55.122 260.907 46.4167 252.398 38.2214M225.211 21.8356C224.92 21.4733 224.627 21.1103 224.332 20.7466C224.048 27.8162 223.667 36.2539 223.199 45.4024M223.199 45.4024C215.787 42.4647 214.397 27.7412 214.628 20.7466C216.376 19.1729 220.765 15.763 224.332 14.7139C226.499 14.0765 239.23 25.5383 252.398 38.2214M251.086 41.92C252.31 40.8923 253.238 39.8209 252.398 38.2214" stroke="black" stroke-width="0.52459"/>
<circle cx="10.7541" cy="10.7541" r="10.4918" transform="matrix(-1 0 0 1 226.624 0)" fill="#FFF9EE" stroke="black" stroke-width="0.52459"/>
</g>
<path d="M350.231 128.17C352.179 144.109 376.199 138.05 385.903 131.843L388.264 130.007C390.362 108.586 392.775 67.2834 388.264 64.9574C382.389 61.9281 378.979 50.6498 376.723 53.4164C373.905 56.8721 348.291 112.289 350.231 128.17Z" fill="#F7E3B8" stroke="black" stroke-width="0.52459"/>
<path d="M373.815 36.6574C375.913 61.5754 388.1 68.8826 388.1 63.4753C390.04 89.2821 391.094 120.276 387.192 132.133C382.156 147.433 398.184 146.332 408.795 143.391C410.483 142.923 412.042 142.097 413.371 140.956C419.768 135.462 428.858 125.316 430.272 120.131C463.139 120.131 447.766 93.1532 436.415 79.3602C436.421 79.1458 436.383 78.2339 436.503 75.4771C436.713 70.6509 401.793 43.2148 384.306 30.1C380.11 23.9798 372.136 16.7229 373.815 36.6574Z" fill="#FFF9EE"/>
<path d="M385.618 36.6574C392.424 36.2665 421.727 63.9361 435.454 78.6246L436.241 79.1492M385.618 36.6574C386.5 45.0509 388.1 57.9671 388.1 63.4753C388.1 68.8827 375.913 61.5754 373.815 36.6574C372.136 16.723 380.11 23.9798 384.306 30.1C401.793 43.2148 436.713 70.6509 436.503 75.4771C436.293 80.3033 436.567 79.4753 436.241 79.1492M385.618 36.6574C450.129 86.7558 427.386 120.131 430.272 120.131M385.618 36.6574C388.416 61.5754 392.647 115.556 387.192 132.133C382.156 147.433 398.184 146.332 408.795 143.391C410.483 142.923 412.042 142.097 413.371 140.956C419.768 135.462 428.858 125.316 430.272 120.131M436.241 79.1492C447.607 92.876 463.308 120.131 430.272 120.131" stroke="black" stroke-width="0.52459"/>
<circle cx="10.7541" cy="10.7541" r="10.4918" transform="matrix(-1 0 0 1 386.099 14.1641)" fill="#FFF9EE" stroke="black" stroke-width="0.52459"/>
</g>
<defs>
<clipPath id="clip0_414_387">
<rect width="960" height="160" fill="white" transform="matrix(-1 0 0 1 960 0)"/>
</clipPath>
<clipPath id="clip1_414_387">
<rect width="160" height="160" fill="white" transform="matrix(-1 0 0 1 640 -0.524414)"/>
</clipPath>
<clipPath id="clip2_414_387">
<rect width="160" height="160" fill="white" transform="matrix(-1 0 0 1 320 -0.524414)"/>
</clipPath>
</defs>
</svg>
