<svg width="960" height="160" viewBox="0 0 960 160" fill="none" xmlns="http://www.w3.org/2000/svg">
<g clip-path="url(#clip0_414_387)">
<path d="M121.443 88.0387L104.656 101.416L114.361 105.705C114.885 113.929 111.977 128.548 99.7971 138.137C90.3765 145.554 75.7708 151.198 52.9837 150.558C51.9345 150.033 51.4099 148.984 51.4099 148.197C51.1476 147.148 52.3541 145.417 54.0328 144.787C55.7115 144.158 70.47 134.121 77.3771 129.312L103.869 107.711L102.557 102.465C102.033 100.459 100.634 89.1753 100.721 82.5305C115.497 64.1698 146.308 28.1829 151.344 31.1206C156.171 34.2682 133.421 70.3775 121.443 88.0387Z" fill="#FFF9EE"/>
<path d="M102.557 102.465L104.656 101.416M102.557 102.465C102.033 100.459 100.634 89.1753 100.721 82.5305C115.497 64.1698 146.308 28.1829 151.344 31.1206C156.171 34.2682 133.421 70.3775 121.443 88.0387L104.656 101.416M102.557 102.465L103.869 107.711L77.3771 129.312M104.656 101.416L114.361 105.705C114.885 113.929 111.977 128.548 99.7971 138.137M77.3771 129.312C70.47 134.121 55.7115 144.158 54.0328 144.787C52.3541 145.417 51.1476 147.148 51.4099 148.197C51.4099 148.984 51.9345 150.033 52.9837 150.558C75.7708 151.198 90.3765 145.554 99.7971 138.137M77.3771 129.312C79.3839 133.596 86.8871 142.124 99.7971 138.137" stroke="black" stroke-width="0.52459"/>
<path d="M99.4431 17.651C95.8759 47.8674 100.929 90.569 103.902 108.143C84.0551 125.017 41.1611 157.717 28.3612 153.52C27.8367 153.258 0.0334606 143.04 16.5581 111.558C-17.4696 80.7986 58.2233 7.5763 75.8015 6.20279C76.5562 6.14381 77.2942 6.15397 78.045 6.05672C95.1912 3.83581 99.4431 15.1926 99.4431 17.651Z" fill="#F7E3B8"/>
<path d="M103.902 108.143C100.929 90.569 95.8759 47.8674 99.4431 17.651C99.4431 15.1926 95.1912 3.83581 78.045 6.05672C77.2942 6.15397 76.5562 6.14381 75.8015 6.20279C58.2233 7.5763 -17.4696 80.7986 16.5581 111.558M103.902 108.143C88.6889 118.897 32.0333 120.209 28.3612 118.897C23.476 116.758 19.5814 114.291 16.5581 111.558M103.902 108.143C84.0551 125.017 41.1611 157.717 28.3612 153.52C27.8367 153.258 0.0334608 143.04 16.5581 111.558" stroke="black" stroke-width="0.52459"/>
<circle cx="114.623" cy="96.7873" r="10.4918" fill="#FFF9EE" stroke="black" stroke-width="0.52459"/>
<path d="M277.245 76.8532L257.835 88.7829L267.052 92.8564C267.576 101.08 264.668 115.699 252.488 125.288C243.067 132.705 228.462 138.349 205.675 137.709C204.625 137.184 204.101 136.135 204.101 135.348C203.839 134.299 205.045 132.568 206.724 131.938C208.402 131.309 223.161 121.272 230.068 116.463L254.688 92.8564L251.767 87.8237C249.18 84.1974 250.753 85.7712 256.262 82.8859C278.819 63.7384 311.344 29.9023 316.852 29.9023C321.678 33.0499 293.77 62.9515 277.245 76.8532Z" fill="#FFF9EE"/>
<path d="M251.767 87.8237L257.835 88.7829M251.767 87.8237C249.18 84.1974 250.753 85.7712 256.262 82.8859C278.819 63.7384 311.344 29.9023 316.852 29.9023C321.678 33.0499 293.77 62.9515 277.245 76.8532L257.835 88.7829M251.767 87.8237L254.688 92.8564L230.068 116.463M257.835 88.7829L267.052 92.8564C267.576 101.08 264.668 115.699 252.488 125.288M230.068 116.463C223.161 121.272 208.402 131.309 206.724 131.938C205.045 132.568 203.839 134.299 204.101 135.348C204.101 136.135 204.625 137.184 205.675 137.709C228.462 138.349 243.067 132.705 252.488 125.288M230.068 116.463C232.075 120.747 239.578 129.275 252.488 125.288" stroke="black" stroke-width="0.52459"/>
<path d="M260.759 27.4379C255.77 55.9463 246.651 79.221 257.644 92.6469C240.562 111.193 196.79 141.619 182.365 141.619C181.841 141.357 164.79 144.766 173.184 123.258C133.316 103.586 211.218 19.9142 245.316 17.2907C263.017 14.4693 260.896 24.298 260.794 27.0814C260.79 27.2021 260.78 27.3189 260.759 27.4379Z" fill="#F7E3B8"/>
<path d="M257.644 92.6469C246.651 79.221 255.77 55.9463 260.759 27.4379C260.78 27.3189 260.79 27.2021 260.794 27.0814C260.896 24.298 263.017 14.4693 245.316 17.2907C211.218 19.9142 133.316 103.586 173.184 123.258M257.644 92.6469C245.282 106.068 193.086 125.881 187.578 125.881C182.594 125.094 176.207 125.991 173.184 123.258M257.644 92.6469C240.562 111.193 196.79 141.619 182.365 141.619C181.841 141.357 164.79 144.766 173.184 123.258" stroke="black" stroke-width="0.52459"/>
<circle cx="267.803" cy="85.7707" r="10.4918" fill="#FFF9EE" stroke="black" stroke-width="0.52459"/>
<path d="M917.245 76.8532L897.835 88.7829L907.052 92.8564C907.576 101.08 904.668 115.699 892.488 125.288C883.067 132.705 868.462 138.349 845.675 137.709C844.625 137.184 844.101 136.135 844.101 135.348C843.839 134.299 845.045 132.568 846.724 131.938C848.402 131.309 863.161 121.272 870.068 116.463L894.688 92.8564L891.767 87.8237C889.18 84.1974 890.753 85.7712 896.262 82.8859C918.819 63.7384 951.344 29.9023 956.852 29.9023C961.678 33.0499 933.77 62.9515 917.245 76.8532Z" fill="#FFF9EE"/>
<path d="M891.767 87.8237L897.835 88.7829M891.767 87.8237C889.18 84.1974 890.753 85.7712 896.262 82.8859C918.819 63.7384 951.344 29.9023 956.852 29.9023C961.678 33.0499 933.77 62.9515 917.245 76.8532L897.835 88.7829M891.767 87.8237L894.688 92.8564L870.068 116.463M897.835 88.7829L907.052 92.8564C907.576 101.08 904.668 115.699 892.488 125.288M870.068 116.463C863.161 121.272 848.402 131.309 846.724 131.938C845.045 132.568 843.839 134.299 844.101 135.348C844.101 136.135 844.625 137.184 845.675 137.709C868.462 138.349 883.067 132.705 892.488 125.288M870.068 116.463C872.075 120.747 879.578 129.275 892.488 125.288" stroke="black" stroke-width="0.52459"/>
<path d="M900.759 27.4379C895.77 55.9463 886.651 79.221 897.644 92.6469C880.562 111.193 836.79 141.619 822.365 141.619C821.841 141.357 804.79 144.766 813.184 123.258C773.316 103.586 851.218 19.9142 885.316 17.2907C903.017 14.4693 900.896 24.298 900.794 27.0814C900.79 27.2021 900.78 27.3189 900.759 27.4379Z" fill="#F7E3B8"/>
<path d="M897.644 92.6469C886.651 79.221 895.77 55.9463 900.759 27.4379C900.78 27.3189 900.79 27.2021 900.794 27.0814C900.896 24.298 903.017 14.4693 885.316 17.2907C851.218 19.9142 773.316 103.586 813.184 123.258M897.644 92.6469C885.282 106.068 833.086 125.881 827.578 125.881C822.594 125.094 816.207 125.991 813.184 123.258M897.644 92.6469C880.562 111.193 836.79 141.619 822.365 141.619C821.841 141.357 804.79 144.766 813.184 123.258" stroke="black" stroke-width="0.52459"/>
<circle cx="907.803" cy="85.7707" r="10.4918" fill="#FFF9EE" stroke="black" stroke-width="0.52459"/>
<g clip-path="url(#clip1_414_387)">
<path d="M451.933 132.197L422.557 39.3447L420.353 42.7524C419.905 43.4436 419.302 44.0198 418.59 44.4345L416.523 45.6398C410.752 72.8311 404.877 128.997 427.539 136.132C450.202 143.266 453.244 136.481 451.933 132.197Z" fill="#F7E3B8" stroke="black" stroke-width="0.52459"/>
<path d="M426.21 154.043C421.843 162.933 395.93 164.429 372.651 128.025C351.318 123.042 335.931 102.583 362.159 66.9106L362.754 64L364.257 61.4024C370.401 55.122 379.093 46.4167 387.602 38.2214C400.77 25.5383 413.501 14.0765 415.668 14.7139C419.235 15.763 423.624 19.1729 425.372 20.7466C425.603 27.7412 424.213 42.4647 416.801 45.4024C418.826 85.0154 421.818 137.93 426.117 150.805C426.476 151.878 426.709 153.028 426.21 154.043Z" fill="#FFF9EE"/>
<path d="M372.651 128.025C395.93 164.429 421.843 162.933 426.21 154.043C426.709 153.028 426.476 151.878 426.117 150.805C421.818 137.93 418.826 85.0154 416.801 45.4024M372.651 128.025C351.318 123.042 335.931 102.583 362.159 66.9106M372.651 128.025C371.348 120.727 368.49 79.4957 414.789 21.8356M362.159 66.9106C402.648 27.4523 415.082 21.4726 414.789 21.8356M362.159 66.9106L362.754 63.9999L364.257 61.4024C370.401 55.122 379.093 46.4167 387.602 38.2214M414.789 21.8356C415.08 21.4733 415.373 21.1103 415.668 20.7466C415.952 27.8162 416.333 36.2539 416.801 45.4024M416.801 45.4024C424.213 42.4647 425.603 27.7412 425.372 20.7466C423.624 19.1729 419.235 15.763 415.668 14.7139C413.501 14.0765 400.77 25.5383 387.602 38.2214M388.914 41.92C387.69 40.8923 386.762 39.8209 387.602 38.2214" stroke="black" stroke-width="0.52459"/>
<circle cx="424.131" cy="10.7541" r="10.4918" fill="#FFF9EE" stroke="black" stroke-width="0.52459"/>
</g>
<g clip-path="url(#clip2_414_387)">
<path d="M771.933 132.197L742.557 39.3447L740.353 42.7524C739.905 43.4436 739.302 44.0198 738.59 44.4345L736.523 45.6398C730.752 72.8311 724.877 128.997 747.539 136.132C770.202 143.266 773.244 136.481 771.933 132.197Z" fill="#F7E3B8" stroke="black" stroke-width="0.52459"/>
<path d="M746.21 154.043C741.843 162.933 715.93 164.429 692.651 128.025C671.318 123.042 655.931 102.583 682.159 66.9106L682.754 64L684.257 61.4024C690.401 55.122 699.093 46.4167 707.602 38.2214C720.77 25.5383 733.501 14.0765 735.668 14.7139C739.235 15.763 743.624 19.1729 745.372 20.7466C745.603 27.7412 744.213 42.4647 736.801 45.4024C738.826 85.0154 741.818 137.93 746.117 150.805C746.476 151.878 746.709 153.028 746.21 154.043Z" fill="#FFF9EE"/>
<path d="M692.651 128.025C715.93 164.429 741.843 162.933 746.21 154.043C746.709 153.028 746.476 151.878 746.117 150.805C741.818 137.93 738.826 85.0154 736.801 45.4024M692.651 128.025C671.318 123.042 655.931 102.583 682.159 66.9106M692.651 128.025C691.348 120.727 688.49 79.4957 734.789 21.8356M682.159 66.9106C722.648 27.4523 735.082 21.4726 734.789 21.8356M682.159 66.9106L682.754 63.9999L684.257 61.4024C690.401 55.122 699.093 46.4167 707.602 38.2214M734.789 21.8356C735.08 21.4733 735.373 21.1103 735.668 20.7466C735.952 27.8162 736.333 36.2539 736.801 45.4024M736.801 45.4024C744.213 42.4647 745.603 27.7412 745.372 20.7466C743.624 19.1729 739.235 15.763 735.668 14.7139C733.501 14.0765 720.77 25.5383 707.602 38.2214M708.914 41.92C707.69 40.8923 706.762 39.8209 707.602 38.2214" stroke="black" stroke-width="0.52459"/>
<circle cx="744.131" cy="10.7541" r="10.4918" fill="#FFF9EE" stroke="black" stroke-width="0.52459"/>
</g>
<path d="M609.769 128.17C607.821 144.109 583.801 138.05 574.097 131.843L571.736 130.007C569.638 108.586 567.225 67.2834 571.736 64.9574C577.611 61.9281 581.021 50.6498 583.277 53.4164C586.095 56.8721 611.709 112.289 609.769 128.17Z" fill="#F7E3B8" stroke="black" stroke-width="0.52459"/>
<path d="M586.185 36.6574C584.087 61.5754 571.9 68.8826 571.9 63.4753C569.96 89.2821 568.906 120.276 572.808 132.133C577.844 147.433 561.816 146.332 551.205 143.391C549.517 142.923 547.958 142.097 546.629 140.956C540.232 135.462 531.142 125.316 529.728 120.131C496.861 120.131 512.234 93.1532 523.585 79.3602C523.579 79.1458 523.617 78.2339 523.497 75.4771C523.287 70.6509 558.207 43.2148 575.694 30.1C579.89 23.9798 587.864 16.7229 586.185 36.6574Z" fill="#FFF9EE"/>
<path d="M574.382 36.6574C567.576 36.2665 538.273 63.9361 524.546 78.6246L523.759 79.1492M574.382 36.6574C573.5 45.0509 571.9 57.9671 571.9 63.4753C571.9 68.8827 584.087 61.5754 586.185 36.6574C587.864 16.723 579.89 23.9798 575.694 30.1C558.207 43.2148 523.287 70.6509 523.497 75.4771C523.707 80.3033 523.433 79.4753 523.759 79.1492M574.382 36.6574C509.871 86.7558 532.614 120.131 529.728 120.131M574.382 36.6574C571.584 61.5754 567.353 115.556 572.808 132.133C577.844 147.433 561.816 146.332 551.205 143.391C549.517 142.923 547.958 142.097 546.629 140.956C540.232 135.462 531.142 125.316 529.728 120.131M523.759 79.1492C512.393 92.876 496.692 120.131 529.728 120.131" stroke="black" stroke-width="0.52459"/>
<circle cx="584.655" cy="24.9182" r="10.4918" fill="#FFF9EE" stroke="black" stroke-width="0.52459"/>
</g>
<defs>
<clipPath id="clip0_414_387">
<rect width="960" height="160" fill="white"/>
</clipPath>
<clipPath id="clip1_414_387">
<rect width="160" height="160" fill="white" transform="translate(320 -0.524414)"/>
</clipPath>
<clipPath id="clip2_414_387">
<rect width="160" height="160" fill="white" transform="translate(640 -0.524414)"/>
</clipPath>
</defs>
</svg>
