<svg width="1081" height="438" viewBox="0 0 1081 438" fill="none" xmlns="http://www.w3.org/2000/svg">
<path d="M24.6638 152.08L27.4638 15.44L34.4638 16L31.6638 152.08C31.4771 161.787 33.1571 168.973 36.7038 173.64C40.4371 178.307 46.5971 180.64 55.1838 180.64C55.7438 180.64 56.0238 181.2 56.0238 182.32C56.0238 183.44 55.7438 184 55.1838 184C51.0771 184 46.8771 183.907 42.5838 183.72C38.2904 183.533 33.4371 183.44 28.0238 183.44C22.9838 183.44 18.2238 183.533 13.7438 183.72C9.26375 183.907 5.06375 184 1.14375 184C0.770417 184 0.58375 183.44 0.58375 182.32C0.58375 181.2 0.770417 180.64 1.14375 180.64C8.98375 180.64 14.7704 178.307 18.5038 173.64C22.4238 168.973 24.4771 161.787 24.6638 152.08ZM220.664 180.64C221.037 180.64 221.224 181.2 221.224 182.32C221.224 183.44 221.037 184 220.664 184C215.997 184 210.77 183.907 204.984 183.72C199.197 183.533 193.037 183.44 186.504 183.44C180.344 183.44 174.557 183.533 169.144 183.72C163.73 183.907 158.877 184 154.584 184C154.024 184 153.744 183.44 153.744 182.32C153.744 181.2 154.024 180.64 154.584 180.64C163.73 180.64 169.61 179.427 172.224 177C174.837 174.573 175.864 169.347 175.304 161.32L169.704 29.44L180.624 13.76L108.104 182.04C107.917 182.787 107.17 183.16 105.864 183.16C104.744 183.16 103.997 182.787 103.624 182.04L30.5438 32.24C24.0104 18.9867 14.8638 12.36 3.10375 12.36C2.73042 12.36 2.54375 11.8 2.54375 10.68C2.54375 9.56 2.73042 9 3.10375 9C6.46375 9 9.91708 9.09333 13.4638 9.28C17.1971 9.46666 20.3704 9.55999 22.9838 9.55999C26.5304 9.55999 29.7037 9.46666 32.5037 9.28C35.4904 9.09333 37.7304 9 39.2238 9C41.8371 9 43.8904 9.93333 45.3838 11.8C46.8771 13.48 49.1171 17.4 52.1038 23.56L115.664 152.64L105.304 170.56L172.784 16C173.717 13.76 174.837 12.08 176.144 10.96C177.637 9.65333 179.317 9 181.184 9C182.49 9 184.077 9.09333 185.944 9.28C187.997 9.46666 190.33 9.55999 192.944 9.55999C198.17 9.55999 202.557 9.46666 206.104 9.28C209.65 9.09333 213.29 9 217.024 9C217.397 9 217.584 9.56 217.584 10.68C217.584 11.8 217.397 12.36 217.024 12.36C208.064 12.36 201.53 13.8533 197.424 16.84C193.317 19.64 191.357 24.8667 191.544 32.52L197.424 161.32C197.797 166.733 198.544 170.84 199.664 173.64C200.784 176.44 202.93 178.307 206.104 179.24C209.277 180.173 214.13 180.64 220.664 180.64ZM287.247 94.12L291.447 87.68H349.127L351.087 94.12H287.247ZM424.167 180.64C425.1 180.64 425.567 181.2 425.567 182.32C425.567 183.44 425.1 184 424.167 184C418.754 184 413.154 183.813 407.367 183.44C401.767 183.067 396.26 182.88 390.847 182.88C384.874 182.88 379.647 183.067 375.167 183.44C370.874 183.813 366.02 184 360.607 184C359.86 184 359.487 183.44 359.487 182.32C359.487 181.2 359.86 180.64 360.607 180.64C369.754 180.64 375.354 179.24 377.407 176.44C379.46 173.453 378.434 167.667 374.327 159.08L314.127 33.92L323.087 20.48L268.487 147.04C263.634 158.427 263.354 166.92 267.647 172.52C271.94 177.933 279.967 180.64 291.727 180.64C292.66 180.64 293.127 181.2 293.127 182.32C293.127 183.44 292.66 184 291.727 184C286.127 184 280.994 183.813 276.327 183.44C271.66 183.067 265.78 182.88 258.687 182.88C251.78 182.88 246.18 183.067 241.887 183.44C237.78 183.813 232.74 184 226.767 184C226.02 184 225.647 183.44 225.647 182.32C225.647 181.2 226.02 180.64 226.767 180.64C231.807 180.64 236.194 179.707 239.927 177.84C243.66 175.787 247.207 172.147 250.567 166.92C254.114 161.693 257.94 154.227 262.047 144.52L321.687 7.03999C321.874 6.47999 322.527 6.19999 323.647 6.19999C324.767 6.01332 325.42 6.29332 325.607 7.03999L392.807 145.64C397.287 154.787 401.114 161.973 404.287 167.2C407.647 172.24 410.914 175.787 414.087 177.84C417.26 179.707 420.62 180.64 424.167 180.64ZM538.221 5.91999C546.434 5.91999 555.114 6.75999 564.261 8.43999C573.594 9.93333 581.061 12.08 586.661 14.88C588.154 15.8133 589.181 16.6533 589.741 17.4C590.301 18.1467 590.674 19.5467 590.861 21.6L593.941 55.2C593.941 55.76 593.474 56.1333 592.541 56.32C591.608 56.5067 591.048 56.2267 590.861 55.48C586.008 40.7333 577.981 29.9067 566.781 23C555.768 15.9067 542.608 12.36 527.301 12.36C513.488 12.36 501.541 15.5333 491.461 21.88C481.568 28.04 473.914 36.8133 468.501 48.2C463.274 59.4 460.661 72.56 460.661 87.68C460.661 100.747 462.528 113.067 466.261 124.64C470.181 136.213 475.594 146.387 482.501 155.16C489.408 163.747 497.341 170.56 506.301 175.6C515.448 180.453 525.248 182.88 535.701 182.88C548.394 182.88 559.688 179.147 569.581 171.68C579.474 164.213 587.408 152.64 593.381 136.96C593.568 136.213 594.128 135.933 595.061 136.12C596.181 136.307 596.741 136.68 596.741 137.24L592.821 170.84C592.448 173.08 591.981 174.573 591.421 175.32C591.048 175.88 590.021 176.533 588.341 177.28C579.381 180.827 570.514 183.347 561.741 184.84C552.968 186.52 544.288 187.36 535.701 187.36C517.781 187.36 502.381 184.653 489.501 179.24C476.808 173.64 466.448 166.36 458.421 157.4C450.394 148.253 444.514 138.267 440.781 127.44C437.048 116.613 435.181 105.88 435.181 95.24C435.181 81.6133 437.981 69.3867 443.581 58.56C449.181 47.7333 456.834 38.4 466.541 30.56C476.248 22.72 487.261 16.6533 499.581 12.36C511.901 8.06666 524.781 5.91999 538.221 5.91999ZM664.486 14.6C652.912 14.6 643.859 17.8667 637.326 24.4C630.792 30.7467 625.939 41.0133 622.766 55.2C622.579 55.5733 621.926 55.76 620.806 55.76C619.872 55.76 619.406 55.48 619.406 54.92C619.779 52.4933 620.152 49.04 620.526 44.56C621.086 40.08 621.552 35.2267 621.926 30C622.299 24.7733 622.579 19.7333 622.766 14.88C623.139 10.0267 623.326 6.01332 623.326 2.84C623.326 1.90666 623.886 1.44 625.006 1.44C626.126 1.44 626.686 1.90666 626.686 2.84C626.686 4.70666 627.619 6.10666 629.486 7.03999C631.352 7.78666 633.499 8.34666 635.926 8.71999C638.352 8.90666 640.406 9 642.086 9C658.139 9.55999 676.899 9.83999 698.366 9.83999C711.432 9.83999 721.886 9.74666 729.726 9.55999C737.566 9.18666 745.126 9 752.406 9C758.752 9 763.606 8.62667 766.966 7.88C770.512 6.94667 772.752 4.98666 773.686 1.99999C773.872 1.25332 774.432 0.879988 775.366 0.879988C776.486 0.879988 777.046 1.25332 777.046 1.99999C776.672 4.79999 776.299 8.71999 775.926 13.76C775.739 18.8 775.459 24.0267 775.086 29.44C774.899 34.8533 774.712 39.8933 774.526 44.56C774.339 49.2267 774.246 52.68 774.246 54.92C774.246 55.48 773.686 55.76 772.566 55.76C771.632 55.76 771.166 55.48 771.166 54.92C769.859 40.36 766.126 30 759.966 23.84C753.806 17.68 744.659 14.6 732.526 14.6C725.992 14.6 721.046 15.0667 717.686 16C714.512 16.7467 712.366 18.3333 711.246 20.76C710.312 23.1867 709.846 27.0133 709.846 32.24V161.32C709.846 166.733 710.406 170.84 711.526 173.64C712.832 176.44 715.259 178.307 718.806 179.24C722.539 180.173 728.232 180.64 735.886 180.64C736.259 180.64 736.446 181.2 736.446 182.32C736.446 183.44 736.259 184 735.886 184C730.846 184 725.152 183.907 718.806 183.72C712.646 183.533 705.832 183.44 698.366 183.44C691.272 183.44 684.552 183.533 678.206 183.72C672.046 183.907 666.352 184 661.126 184C660.566 184 660.286 183.44 660.286 182.32C660.286 181.2 660.566 180.64 661.126 180.64C668.406 180.64 673.912 180.173 677.646 179.24C681.566 178.307 684.179 176.44 685.486 173.64C686.792 170.84 687.446 166.733 687.446 161.32V31.68C687.446 26.64 686.886 22.9067 685.766 20.48C684.646 17.8667 682.406 16.28 679.046 15.72C675.686 14.9733 670.832 14.6 664.486 14.6ZM918.367 184H799.087C798.527 184 798.247 183.44 798.247 182.32C798.247 181.2 798.527 180.64 799.087 180.64C805.434 180.64 810.194 180.173 813.367 179.24C816.727 178.307 818.967 176.44 820.087 173.64C821.207 170.84 821.767 166.733 821.767 161.32V31.68C821.767 26.2667 821.207 22.2533 820.087 19.64C818.967 16.84 816.727 14.9733 813.367 14.04C810.194 12.92 805.434 12.36 799.087 12.36C798.527 12.36 798.247 11.8 798.247 10.68C798.247 9.56 798.527 9 799.087 9H913.327C915.194 9 916.127 9.83999 916.127 11.52L916.687 46.8C916.687 47.36 916.127 47.7333 915.007 47.92C914.074 47.92 913.514 47.64 913.327 47.08C912.02 36.8133 908.38 29.0667 902.407 23.84C896.434 18.4267 888.594 15.72 878.887 15.72H864.607C859.007 15.72 854.714 16.1867 851.727 17.12C848.74 18.0533 846.687 19.8267 845.567 22.44C844.447 24.8667 843.887 28.32 843.887 32.8V160.2C843.887 164.68 844.354 168.227 845.287 170.84C846.407 173.267 848.367 175.04 851.167 176.16C853.967 177.093 857.887 177.56 862.927 177.56H881.407C892.047 177.56 900.82 174.48 907.727 168.32C914.634 161.973 919.394 153.013 922.007 141.44C922.007 140.88 922.567 140.693 923.687 140.88C924.807 141.067 925.367 141.44 925.367 142C924.62 147.04 923.967 153.107 923.407 160.2C922.847 167.293 922.567 173.827 922.567 179.8C922.567 182.6 921.167 184 918.367 184ZM902.687 119.6C902.687 111.573 900.354 105.693 895.687 101.96C891.207 98.04 883.927 96.08 873.847 96.08H833.247V89.64H874.687C884.207 89.64 891.207 88.0533 895.687 84.88C900.167 81.52 902.407 76.3867 902.407 69.48C902.407 69.1067 902.874 68.92 903.807 68.92C904.927 68.92 905.487 69.1067 905.487 69.48C905.487 75.2667 905.394 79.7467 905.207 82.92C905.207 86.0933 905.207 89.4533 905.207 93C905.207 97.2933 905.3 101.587 905.487 105.88C905.86 110.173 906.047 114.747 906.047 119.6C906.047 119.973 905.487 120.16 904.367 120.16C903.247 120.16 902.687 119.973 902.687 119.6ZM994.805 160.2C994.805 165.8 995.458 170.093 996.765 173.08C998.258 175.88 1001.24 177.84 1005.72 178.96C1010.2 180.08 1016.92 180.64 1025.88 180.64C1026.44 180.64 1026.72 181.2 1026.72 182.32C1026.72 183.44 1026.44 184 1025.88 184C1019.91 184 1013.38 183.907 1006.28 183.72C999.378 183.533 991.818 183.44 983.605 183.44C977.445 183.44 971.378 183.533 965.405 183.72C959.618 183.907 954.391 184 949.725 184C949.351 184 949.165 183.44 949.165 182.32C949.165 181.2 949.351 180.64 949.725 180.64C956.258 180.64 961.111 180.173 964.285 179.24C967.645 178.307 969.791 176.44 970.725 173.64C971.845 170.84 972.405 166.733 972.405 161.32V31.68C972.405 26.2667 971.845 22.2533 970.725 19.64C969.791 16.84 967.645 14.9733 964.285 14.04C961.111 12.92 956.258 12.36 949.725 12.36C949.351 12.36 949.165 11.8 949.165 10.68C949.165 9.56 949.351 9 949.725 9C954.391 9 959.618 9.18666 965.405 9.55999C971.191 9.74666 977.165 9.83999 983.325 9.83999C988.178 9.83999 994.058 9.55999 1000.96 9C1008.06 8.44 1015.15 8.15999 1022.24 8.15999C1033.07 8.15999 1042.78 9.74666 1051.36 12.92C1060.14 16.0933 1067.14 21.04 1072.36 27.76C1077.59 34.48 1080.3 43.2533 1080.48 54.08C1080.48 63.7867 1078.71 72.1867 1075.16 79.28C1071.62 86.3733 1066.76 92.2533 1060.6 96.92C1054.63 101.587 1047.91 105.04 1040.44 107.28C1033.16 109.52 1025.98 110.64 1018.88 110.64C1016.64 110.64 1014.31 110.547 1011.88 110.36C1009.64 110.173 1007.5 109.8 1005.44 109.24C1004.7 109.053 1004.42 108.4 1004.6 107.28C1004.98 105.973 1005.44 105.413 1006 105.6C1007.68 105.973 1009.36 106.253 1011.04 106.44C1012.91 106.627 1014.5 106.72 1015.8 106.72C1022.9 106.72 1029.43 105.04 1035.4 101.68C1041.38 98.32 1046.23 93.1867 1049.96 86.28C1053.7 79.1867 1055.56 70.4133 1055.56 59.96C1055.56 49.88 1053.79 41.3867 1050.24 34.48C1046.88 27.5733 1042.12 22.2533 1035.96 18.52C1029.8 14.7867 1022.71 12.92 1014.68 12.92C1009.46 12.92 1005.35 13.2933 1002.36 14.04C999.565 14.7867 997.605 16.56 996.485 19.36C995.365 22.16 994.805 26.4533 994.805 32.24V160.2ZM216.117 434C214.437 434 212.85 433.72 211.357 433.16C209.864 432.6 207.904 430.92 205.477 428.12C203.05 425.32 199.504 420.747 194.837 414.4C190.17 407.867 183.73 398.72 175.517 386.96C169.73 378.56 164.877 371.653 160.957 366.24C157.037 360.827 153.49 356.72 150.317 353.92C147.144 350.933 143.784 348.88 140.237 347.76C136.69 346.453 132.304 345.8 127.077 345.8C125.21 345.8 123.25 345.893 121.197 346.08C119.33 346.267 117.277 346.453 115.037 346.64L114.757 341.6C127.077 341.04 136.597 340.76 143.317 340.76C149.664 340.76 154.984 341.32 159.277 342.44C163.57 343.373 167.397 345.333 170.757 348.32C174.304 351.12 178.037 355.227 181.957 360.64C186.064 365.867 191.197 372.773 197.357 381.36C204.824 391.813 211.45 400.68 217.237 407.96C223.024 415.24 228.81 420.84 234.597 424.76C240.384 428.493 246.824 430.453 253.917 430.64C254.29 430.64 254.477 431.2 254.477 432.32C254.477 433.44 254.29 434 253.917 434H216.117ZM78.637 434C78.2637 434 78.077 433.44 78.077 432.32C78.077 431.2 78.2637 430.64 78.637 430.64C85.357 430.64 90.397 430.173 93.757 429.24C97.3037 428.307 99.637 426.44 100.757 423.64C101.877 420.84 102.437 416.733 102.437 411.32V281.68C102.437 276.267 101.877 272.253 100.757 269.64C99.637 266.84 97.397 264.973 94.037 264.04C90.677 262.92 85.637 262.36 78.917 262.36C78.5437 262.36 78.357 261.8 78.357 260.68C78.357 259.56 78.5437 259 78.917 259C83.5837 259 88.717 259.187 94.317 259.56C100.104 259.747 106.17 259.84 112.517 259.84C119.61 259.84 126.144 259.747 132.117 259.56C138.09 259.187 143.317 259 147.797 259C148.357 259 148.637 259.56 148.637 260.68C148.637 261.8 148.357 262.36 147.797 262.36C141.264 262.36 136.317 262.92 132.957 264.04C129.597 265.16 127.357 267.12 126.237 269.92C125.117 272.72 124.557 276.827 124.557 282.24V411.32C124.557 416.733 125.024 420.84 125.957 423.64C127.077 426.44 129.317 428.307 132.677 429.24C136.224 430.173 141.264 430.64 147.797 430.64C148.357 430.64 148.637 431.2 148.637 432.32C148.637 433.44 148.357 434 147.797 434C143.13 434 137.81 433.907 131.837 433.72C126.05 433.533 119.61 433.44 112.517 433.44C106.17 433.44 100.104 433.533 94.317 433.72C88.5304 433.907 83.3037 434 78.637 434ZM150.597 345.24L145.557 342.72L179.437 295.68C188.024 283.733 192.037 275.24 191.477 270.2C191.104 264.973 186.717 262.36 178.317 262.36C177.944 262.36 177.757 261.8 177.757 260.68C177.757 259.56 177.944 259 178.317 259C182.797 259 187.464 259.187 192.317 259.56C197.357 259.747 203.61 259.84 211.077 259.84C218.917 259.84 225.077 259.747 229.557 259.56C234.037 259.187 238.33 259 242.437 259C242.997 259 243.277 259.56 243.277 260.68C243.277 261.8 242.997 262.36 242.437 262.36C236.09 262.36 230.024 263.573 224.237 266C218.637 268.24 213.037 271.693 207.437 276.36C202.024 281.027 196.61 286.813 191.197 293.72L150.597 345.24ZM271.601 437.36C267.494 437.36 264.041 436.427 261.241 434.56C258.441 432.693 257.041 429.8 257.041 425.88C257.041 421.96 258.254 419.253 260.681 417.76C263.294 416.267 266.281 415.52 269.641 415.52C270.574 415.52 271.507 415.52 272.441 415.52C273.561 415.52 274.587 415.52 275.521 415.52C282.054 415.52 287.934 412.907 293.161 407.68C298.574 402.267 303.241 395.08 307.161 386.12C311.267 377.16 314.627 367.08 317.241 355.88C320.041 344.68 322.094 333.2 323.401 321.44C324.707 309.68 325.361 298.48 325.361 287.84C325.361 282.427 324.707 277.853 323.401 274.12C322.094 270.2 319.481 267.307 315.561 265.44C311.641 263.387 305.761 262.36 297.921 262.36C297.361 262.36 297.081 261.8 297.081 260.68C297.081 259.56 297.361 259 297.921 259C299.041 259 302.214 259 307.441 259C312.854 259 319.481 259 327.321 259C335.347 259 343.934 259 353.081 259C362.414 259 371.654 259 380.801 259C390.134 259 398.721 259 406.561 259C414.401 259 420.747 259 425.601 259C430.641 259 433.534 259 434.281 259C434.654 259 434.841 259.56 434.841 260.68C434.841 261.8 434.654 262.36 434.281 262.36C427.561 262.36 422.427 262.92 418.881 264.04C415.521 264.973 413.281 266.84 412.161 269.64C411.041 272.253 410.481 276.267 410.481 281.68V411.32C410.481 416.733 411.041 420.84 412.161 423.64C413.281 426.44 415.521 428.307 418.881 429.24C422.427 430.173 427.561 430.64 434.281 430.64C434.654 430.64 434.841 431.2 434.841 432.32C434.841 433.44 434.654 434 434.281 434C429.614 434 424.387 433.907 418.601 433.72C412.814 433.533 406.654 433.44 400.121 433.44C393.401 433.44 387.054 433.533 381.081 433.72C375.107 433.907 369.694 434 364.841 434C364.467 434 364.281 433.44 364.281 432.32C364.281 431.2 364.467 430.64 364.841 430.64C371.747 430.64 376.881 430.173 380.241 429.24C383.601 428.307 385.747 426.44 386.681 423.64C387.801 420.84 388.361 416.733 388.361 411.32V283.64C388.361 277.853 388.081 273.747 387.521 271.32C386.961 268.893 385.281 267.493 382.481 267.12C379.867 266.56 375.294 266.28 368.761 266.28H353.361C348.321 266.28 344.214 266.747 341.041 267.68C338.054 268.427 335.907 270.293 334.601 273.28C333.294 276.267 332.641 281.12 332.641 287.84C332.641 295.307 332.267 304.173 331.521 314.44C330.774 324.707 329.467 335.44 327.601 346.64C325.921 357.84 323.587 368.76 320.601 379.4C317.801 390.04 314.067 399.84 309.401 408.8C304.921 417.573 299.601 424.573 293.441 429.8C287.281 434.84 280.001 437.36 271.601 437.36ZM504.22 344.12L508.42 337.68H566.1L568.06 344.12H504.22ZM641.14 430.64C642.073 430.64 642.54 431.2 642.54 432.32C642.54 433.44 642.073 434 641.14 434C635.726 434 630.126 433.813 624.34 433.44C618.74 433.067 613.233 432.88 607.82 432.88C601.846 432.88 596.62 433.067 592.14 433.44C587.846 433.813 582.993 434 577.58 434C576.833 434 576.46 433.44 576.46 432.32C576.46 431.2 576.833 430.64 577.58 430.64C586.726 430.64 592.326 429.24 594.38 426.44C596.433 423.453 595.406 417.667 591.3 409.08L531.1 283.92L540.06 270.48L485.46 397.04C480.606 408.427 480.326 416.92 484.62 422.52C488.913 427.933 496.94 430.64 508.7 430.64C509.633 430.64 510.1 431.2 510.1 432.32C510.1 433.44 509.633 434 508.7 434C503.1 434 497.966 433.813 493.3 433.44C488.633 433.067 482.753 432.88 475.66 432.88C468.753 432.88 463.153 433.067 458.86 433.44C454.753 433.813 449.713 434 443.74 434C442.993 434 442.62 433.44 442.62 432.32C442.62 431.2 442.993 430.64 443.74 430.64C448.78 430.64 453.166 429.707 456.9 427.84C460.633 425.787 464.18 422.147 467.54 416.92C471.086 411.693 474.913 404.227 479.02 394.52L538.66 257.04C538.846 256.48 539.5 256.2 540.62 256.2C541.74 256.013 542.393 256.293 542.58 257.04L609.78 395.64C614.26 404.787 618.086 411.973 621.26 417.2C624.62 422.24 627.886 425.787 631.06 427.84C634.233 429.707 637.593 430.64 641.14 430.64ZM755.194 255.92C763.407 255.92 772.087 256.76 781.234 258.44C790.567 259.933 798.034 262.08 803.634 264.88C805.127 265.813 806.154 266.653 806.714 267.4C807.274 268.147 807.647 269.547 807.834 271.6L810.914 305.2C810.914 305.76 810.447 306.133 809.514 306.32C808.58 306.507 808.02 306.227 807.834 305.48C802.98 290.733 794.954 279.907 783.754 273C772.74 265.907 759.58 262.36 744.274 262.36C730.46 262.36 718.514 265.533 708.434 271.88C698.54 278.04 690.887 286.813 685.474 298.2C680.247 309.4 677.634 322.56 677.634 337.68C677.634 350.747 679.5 363.067 683.234 374.64C687.154 386.213 692.567 396.387 699.474 405.16C706.38 413.747 714.314 420.56 723.274 425.6C732.42 430.453 742.22 432.88 752.674 432.88C765.367 432.88 776.66 429.147 786.554 421.68C796.447 414.213 804.38 402.64 810.354 386.96C810.54 386.213 811.1 385.933 812.034 386.12C813.154 386.307 813.714 386.68 813.714 387.24L809.794 420.84C809.42 423.08 808.954 424.573 808.394 425.32C808.02 425.88 806.994 426.533 805.314 427.28C796.354 430.827 787.487 433.347 778.714 434.84C769.94 436.52 761.26 437.36 752.674 437.36C734.754 437.36 719.354 434.653 706.474 429.24C693.78 423.64 683.42 416.36 675.394 407.4C667.367 398.253 661.487 388.267 657.754 377.44C654.02 366.613 652.154 355.88 652.154 345.24C652.154 331.613 654.954 319.387 660.554 308.56C666.154 297.733 673.807 288.4 683.514 280.56C693.22 272.72 704.234 266.653 716.554 262.36C728.874 258.067 741.754 255.92 755.194 255.92ZM942.498 255.92C950.712 255.92 959.392 256.76 968.538 258.44C977.872 259.933 985.338 262.08 990.938 264.88C992.432 265.813 993.458 266.653 994.018 267.4C994.578 268.147 994.952 269.547 995.138 271.6L998.218 305.2C998.218 305.76 997.752 306.133 996.818 306.32C995.885 306.507 995.325 306.227 995.138 305.48C990.285 290.733 982.258 279.907 971.058 273C960.045 265.907 946.885 262.36 931.578 262.36C917.765 262.36 905.818 265.533 895.738 271.88C885.845 278.04 878.192 286.813 872.778 298.2C867.552 309.4 864.938 322.56 864.938 337.68C864.938 350.747 866.805 363.067 870.538 374.64C874.458 386.213 879.872 396.387 886.778 405.16C893.685 413.747 901.618 420.56 910.578 425.6C919.725 430.453 929.525 432.88 939.978 432.88C952.672 432.88 963.965 429.147 973.858 421.68C983.752 414.213 991.685 402.64 997.658 386.96C997.845 386.213 998.405 385.933 999.338 386.12C1000.46 386.307 1001.02 386.68 1001.02 387.24L997.098 420.84C996.725 423.08 996.258 424.573 995.698 425.32C995.325 425.88 994.298 426.533 992.618 427.28C983.658 430.827 974.792 433.347 966.018 434.84C957.245 436.52 948.565 437.36 939.978 437.36C922.058 437.36 906.658 434.653 893.778 429.24C881.085 423.64 870.725 416.36 862.698 407.4C854.672 398.253 848.792 388.267 845.058 377.44C841.325 366.613 839.458 355.88 839.458 345.24C839.458 331.613 842.258 319.387 847.858 308.56C853.458 297.733 861.112 288.4 870.818 280.56C880.525 272.72 891.538 266.653 903.858 262.36C916.178 258.067 929.058 255.92 942.498 255.92Z" fill="#FFF9EE"/>
</svg>
