<svg width="1830" height="305" viewBox="0 0 1830 305" fill="none" xmlns="http://www.w3.org/2000/svg">
<g clip-path="url(#clip0_414_387)">
<path d="M231.5 167.823L199.5 193.323L218 201.5C219 217.177 213.456 245.044 190.238 263.323C172.28 277.461 144.438 288.221 101 287C99 286 98 284 98 282.5C97.5 280.5 99.8 277.2 103 276C106.2 274.8 134.333 255.667 147.5 246.5L198 205.323L195.5 195.323C194.5 191.5 191.833 169.99 192 157.323C220.167 122.323 278.9 53.723 288.5 59.323C297.7 65.323 254.333 134.156 231.5 167.823Z" fill="#FFF9EE"/>
<path d="M195.5 195.323L199.5 193.323M195.5 195.323C194.5 191.5 191.833 169.99 192 157.323C220.167 122.323 278.9 53.723 288.5 59.323C297.7 65.323 254.333 134.156 231.5 167.823L199.5 193.323M195.5 195.323L198 205.323L147.5 246.5M199.5 193.323L218 201.5C219 217.177 213.456 245.044 190.238 263.323M147.5 246.5C134.333 255.667 106.2 274.8 103 276C99.8 277.2 97.5 280.5 98 282.5C98 284 99 286 101 287C144.438 288.221 172.28 277.461 190.238 263.323M147.5 246.5C151.325 254.667 165.629 270.923 190.238 263.323" stroke="black"/>
<path d="M189.563 33.6472C182.763 91.2472 192.396 172.647 198.063 206.147C160.23 238.314 78.4628 300.647 54.063 292.647C53.0632 292.147 0.0632362 272.669 31.5632 212.658C-33.3019 154.022 110.988 14.4423 144.496 11.824C145.935 11.7116 147.341 11.731 148.773 11.5456C181.458 7.31199 189.563 28.9609 189.563 33.6472Z" fill="#F7E3B8"/>
<path d="M198.063 206.147C192.396 172.647 182.763 91.2472 189.563 33.6472C189.563 28.9609 181.458 7.31199 148.773 11.5456C147.341 11.731 145.935 11.7116 144.496 11.824C110.988 14.4423 -33.3019 154.022 31.5632 212.658M198.063 206.147C169.063 226.647 61.063 229.147 54.063 226.647C44.7507 222.571 37.3264 217.868 31.5632 212.658M198.063 206.147C160.23 238.314 78.4628 300.647 54.063 292.647C53.0632 292.147 0.0632362 272.669 31.5632 212.658" stroke="black"/>
<circle cx="218.5" cy="184.5" r="20" fill="#FFF9EE" stroke="black"/>
<path d="M528.5 146.5L491.5 169.241L509.068 177.006C510.068 192.683 504.525 220.55 481.306 238.829C463.349 252.967 435.506 263.727 392.068 262.506C390.068 261.506 389.068 259.506 389.068 258.006C388.568 256.006 390.868 252.706 394.068 251.506C397.268 250.306 425.402 231.173 438.568 222.006L485.5 177.006L479.932 167.413C475 160.5 478 163.5 488.5 158C531.5 121.5 593.5 57 604 57C613.2 63 560 120 528.5 146.5Z" fill="#FFF9EE"/>
<path d="M479.932 167.413L491.5 169.241M479.932 167.413C475 160.5 478 163.5 488.5 158C531.5 121.5 593.5 57 604 57C613.2 63 560 120 528.5 146.5L491.5 169.241M479.932 167.413L485.5 177.006L438.568 222.006M491.5 169.241L509.068 177.006C510.068 192.683 504.525 220.55 481.306 238.829M438.568 222.006C425.402 231.173 397.268 250.306 394.068 251.506C390.868 252.706 388.568 256.006 389.068 258.006C389.068 259.506 390.068 261.506 392.068 262.506C435.506 263.727 463.349 252.967 481.306 238.829M438.568 222.006C442.394 230.173 456.697 246.429 481.306 238.829" stroke="black"/>
<path d="M497.073 52.303C487.563 106.647 470.18 151.015 491.136 176.608C458.573 211.961 375.133 269.961 347.635 269.961C346.635 269.461 314.133 275.961 330.133 234.961C254.135 197.46 402.636 37.9609 467.635 32.96C501.377 27.5816 497.334 46.3176 497.14 51.6235C497.131 51.8536 497.113 52.0762 497.073 52.303Z" fill="#F7E3B8"/>
<path d="M491.136 176.608C470.18 151.015 487.563 106.647 497.073 52.303C497.113 52.0762 497.131 51.8536 497.14 51.6235C497.334 46.3176 501.377 27.5816 467.635 32.96C402.636 37.9609 254.135 197.46 330.133 234.961M491.136 176.608C467.571 202.191 368.071 239.961 357.571 239.961C348.071 238.461 335.896 240.17 330.133 234.961M491.136 176.608C458.573 211.961 375.133 269.961 347.635 269.961C346.635 269.461 314.133 275.961 330.133 234.961" stroke="black"/>
<circle cx="510.5" cy="163.5" r="20" fill="#FFF9EE" stroke="black"/>
<path d="M1748.5 146.5L1711.5 169.241L1729.07 177.006C1730.07 192.683 1724.52 220.55 1701.31 238.829C1683.35 252.967 1655.51 263.727 1612.07 262.506C1610.07 261.506 1609.07 259.506 1609.07 258.006C1608.57 256.006 1610.87 252.706 1614.07 251.506C1617.27 250.306 1645.4 231.173 1658.57 222.006L1705.5 177.006L1699.93 167.413C1695 160.5 1698 163.5 1708.5 158C1751.5 121.5 1813.5 57 1824 57C1833.2 63 1780 120 1748.5 146.5Z" fill="#FFF9EE"/>
<path d="M1699.93 167.413L1711.5 169.241M1699.93 167.413C1695 160.5 1698 163.5 1708.5 158C1751.5 121.5 1813.5 57 1824 57C1833.2 63 1780 120 1748.5 146.5L1711.5 169.241M1699.93 167.413L1705.5 177.006L1658.57 222.006M1711.5 169.241L1729.07 177.006C1730.07 192.683 1724.52 220.55 1701.31 238.829M1658.57 222.006C1645.4 231.173 1617.27 250.306 1614.07 251.506C1610.87 252.706 1608.57 256.006 1609.07 258.006C1609.07 259.506 1610.07 261.506 1612.07 262.506C1655.51 263.727 1683.35 252.967 1701.31 238.829M1658.57 222.006C1662.39 230.173 1676.7 246.429 1701.31 238.829" stroke="black"/>
<path d="M1717.07 52.303C1707.56 106.647 1690.18 151.015 1711.14 176.608C1678.57 211.961 1595.13 269.961 1567.63 269.961C1566.64 269.461 1534.13 275.961 1550.13 234.961C1474.13 197.46 1622.64 37.9609 1687.64 32.96C1721.38 27.5816 1717.33 46.3176 1717.14 51.6235C1717.13 51.8536 1717.11 52.0762 1717.07 52.303Z" fill="#F7E3B8"/>
<path d="M1711.14 176.608C1690.18 151.015 1707.56 106.647 1717.07 52.303C1717.11 52.0762 1717.13 51.8536 1717.14 51.6235C1717.33 46.3176 1721.38 27.5816 1687.64 32.96C1622.64 37.9609 1474.13 197.46 1550.13 234.961M1711.14 176.608C1687.57 202.191 1588.07 239.961 1577.57 239.961C1568.07 238.461 1555.9 240.17 1550.13 234.961M1711.14 176.608C1678.57 211.961 1595.13 269.961 1567.63 269.961C1566.64 269.461 1534.13 275.961 1550.13 234.961" stroke="black"/>
<circle cx="1730.5" cy="163.5" r="20" fill="#FFF9EE" stroke="black"/>
<g clip-path="url(#clip1_414_387)">
<path d="M861.497 252L805.5 75L801.297 81.4958C800.444 82.8134 799.294 83.9119 797.938 84.7023L793.997 87C782.997 138.833 771.797 245.9 814.997 259.5C858.197 273.1 863.997 260.167 861.497 252Z" fill="#F7E3B8" stroke="black"/>
<path d="M812.463 293.644C804.138 310.59 754.741 313.443 710.367 244.048C669.7 234.548 640.368 195.548 690.366 127.548L691.5 122L694.366 117.048C706.077 105.076 722.646 88.482 738.866 72.8596C763.969 48.6825 788.236 26.8334 792.367 28.0484C799.166 30.0484 807.533 36.5484 810.866 39.5484C811.307 52.8817 808.656 80.9483 794.527 86.5483C798.388 162.061 804.09 262.929 812.287 287.473C812.969 289.517 813.414 291.709 812.463 293.644Z" fill="#FFF9EE"/>
<path d="M710.367 244.048C754.741 313.443 804.138 310.59 812.463 293.644C813.414 291.709 812.969 289.517 812.287 287.473C804.09 262.929 798.388 162.061 794.527 86.5483M710.367 244.048C669.7 234.548 640.368 195.548 690.366 127.548M710.367 244.048C707.882 230.136 702.435 151.539 790.692 41.6242M690.366 127.548C767.549 52.331 791.25 40.9323 790.692 41.6242M690.366 127.548L691.5 122L694.366 117.048C706.077 105.076 722.646 88.482 738.866 72.8596M790.692 41.6242C791.247 40.9335 791.805 40.2416 792.367 39.5484C792.908 53.0247 793.635 69.1092 794.527 86.5483M794.527 86.5483C808.656 80.9483 811.307 52.8817 810.866 39.5484C807.533 36.5484 799.166 30.0484 792.367 28.0484C788.236 26.8334 763.969 48.6825 738.866 72.8596M741.368 79.9101C739.035 77.9509 737.266 75.9086 738.866 72.8596" stroke="black"/>
<circle cx="808.5" cy="20.5" r="20" fill="#FFF9EE" stroke="black"/>
</g>
<g clip-path="url(#clip2_414_387)">
<path d="M1471.5 252L1415.5 75L1411.3 81.4958C1410.44 82.8134 1409.29 83.9119 1407.94 84.7023L1404 87C1393 138.833 1381.8 245.9 1425 259.5C1468.2 273.1 1474 260.167 1471.5 252Z" fill="#F7E3B8" stroke="black"/>
<path d="M1422.46 293.644C1414.14 310.59 1364.74 313.443 1320.37 244.048C1279.7 234.548 1250.37 195.548 1300.37 127.548L1301.5 122L1304.37 117.048C1316.08 105.076 1332.65 88.482 1348.87 72.8596C1373.97 48.6825 1398.24 26.8334 1402.37 28.0484C1409.17 30.0484 1417.53 36.5484 1420.87 39.5484C1421.31 52.8817 1418.66 80.9483 1404.53 86.5483C1408.39 162.061 1414.09 262.929 1422.29 287.473C1422.97 289.517 1423.41 291.709 1422.46 293.644Z" fill="#FFF9EE"/>
<path d="M1320.37 244.048C1364.74 313.443 1414.14 310.59 1422.46 293.644C1423.41 291.709 1422.97 289.517 1422.29 287.473C1414.09 262.929 1408.39 162.061 1404.53 86.5483M1320.37 244.048C1279.7 234.548 1250.37 195.548 1300.37 127.548M1320.37 244.048C1317.88 230.136 1312.44 151.539 1400.69 41.6242M1300.37 127.548C1377.55 52.331 1401.25 40.9323 1400.69 41.6242M1300.37 127.548L1301.5 122L1304.37 117.048C1316.08 105.076 1332.65 88.482 1348.87 72.8596M1400.69 41.6242C1401.25 40.9335 1401.8 40.2416 1402.37 39.5484C1402.91 53.0247 1403.64 69.1092 1404.53 86.5483M1404.53 86.5483C1418.66 80.9483 1421.31 52.8817 1420.87 39.5484C1417.53 36.5484 1409.17 30.0484 1402.37 28.0484C1398.24 26.8334 1373.97 48.6825 1348.87 72.8596M1351.37 79.9101C1349.03 77.9509 1347.27 75.9086 1348.87 72.8596" stroke="black"/>
<circle cx="1418.5" cy="20.5" r="20" fill="#FFF9EE" stroke="black"/>
</g>
<path d="M1162.37 244.325C1158.66 274.709 1112.87 263.159 1094.37 251.325L1089.87 247.825C1085.87 206.992 1081.27 128.259 1089.87 123.825C1101.07 118.051 1107.57 96.5516 1111.87 101.825C1117.24 108.413 1166.07 214.051 1162.37 244.325Z" fill="#F7E3B8" stroke="black"/>
<path d="M1117.42 69.8784C1113.42 117.378 1090.19 131.308 1090.19 121C1086.49 170.194 1084.48 229.276 1091.92 251.878C1101.52 281.044 1070.96 278.946 1050.74 273.339C1047.52 272.447 1044.55 270.873 1042.01 268.697C1029.82 258.225 1012.49 238.884 1009.8 229C947.142 229 976.448 177.573 998.086 151.281C998.074 150.872 998.146 149.134 997.918 143.878C997.518 134.678 1064.08 82.3784 1097.42 57.3783C1105.42 45.7117 1120.62 31.8783 1117.42 69.8784Z" fill="#FFF9EE"/>
<path d="M1094.92 69.8784C1081.94 69.1332 1026.08 121.878 999.918 149.878L998.418 150.878M1094.92 69.8784C1093.24 85.8784 1090.19 110.5 1090.19 121C1090.19 131.308 1113.42 117.378 1117.42 69.8784C1120.62 31.8783 1105.42 45.7117 1097.42 57.3783C1064.08 82.3784 997.518 134.678 997.918 143.878C998.318 153.078 997.796 151.5 998.418 150.878M1094.92 69.8784C971.943 165.378 1015.3 229 1009.8 229M1094.92 69.8784C1089.58 117.378 1081.52 220.278 1091.92 251.878C1101.52 281.044 1070.96 278.946 1050.74 273.339C1047.52 272.447 1044.55 270.873 1042.01 268.697C1029.82 258.225 1012.49 238.884 1009.8 229M998.418 150.878C976.751 177.045 946.821 229 1009.8 229" stroke="black"/>
<circle cx="1114.5" cy="47.5" r="20" fill="#FFF9EE" stroke="black"/>
</g>
<defs>
<clipPath id="clip0_414_387">
<rect width="1830" height="305" fill="white"/>
</clipPath>
<clipPath id="clip1_414_387">
<rect width="305" height="305" fill="white" transform="translate(610 -1)"/>
</clipPath>
<clipPath id="clip2_414_387">
<rect width="305" height="305" fill="white" transform="translate(1220 -1)"/>
</clipPath>
</defs>
</svg>
